<svg viewBox="0,0,42.40951,147.20751" height="147.20751" width="42.40951" xmlns:xlink="http://www.w3.org/1999/xlink" xmlns="http://www.w3.org/2000/svg" version="1.1"><g transform="translate(-225.07461,-68.5145)"><g style="mix-blend-mode: normal" stroke-dashoffset="0" stroke-dasharray="" stroke-miterlimit="10" stroke-linejoin="miter" stroke-linecap="butt" stroke-width="1" stroke="none" fill-rule="nonzero" data-paper-data="{&quot;isPaintingLayer&quot;:true}"><path fill="#010101" d="M249.22167,87.57974c-0.0655,0.9451 -0.0655,1.80429 -0.0655,2.66347c0,5.84246 0,11.68491 0,17.44145c0,5.41286 0.0655,10.82573 0.0655,16.23859c0,3.17898 -0.0655,6.44389 -0.0655,9.62287c0,4.38184 0,8.76368 0,13.14553c0,4.89735 0,9.88062 0,14.77798c0,4.55368 0,9.19328 0,13.74696c0,4.12409 -0.06537,8.24817 -0.06537,12.28634c0,4.21001 0,8.33409 0,12.5441c0,1.46061 0.32713,1.97612 1.30877,2.40572c1.63589,0.68735 3.27191,1.28878 4.90794,1.97612c1.96315,0.77327 4.05717,1.28878 5.95482,2.40572c0.58901,0.34367 1.11252,0.25776 1.70153,0.34367c1.11239,0.08592 2.09403,0.68735 3.14104,1.28878c1.30877,0.77327 1.7014,3.69449 1.11239,4.98327c-0.85063,1.97612 -2.42115,2.74939 -3.86079,1.97612c-0.71989,-0.42959 -1.43964,-0.9451 -1.96328,-1.71837c-0.39263,-0.51551 -0.78526,-0.85918 -1.30877,-1.11694c-3.33729,-1.71837 -6.74021,-3.43674 -10.20837,-4.55368c-0.19638,-0.08592 -0.45813,-0.08592 -0.58901,-0.08592c-1.63589,0.77327 -3.27191,0.42959 -4.90794,0c-0.52351,-0.17184 -1.04701,-0.17184 -1.57052,0c-0.71976,0.25776 -1.43964,0.51551 -2.09403,0.77327c-2.87928,1.03102 -5.62769,2.49164 -8.37623,3.95225c-0.39263,0.17184 -0.71976,0.42959 -1.04701,0.85918c-0.58888,0.77327 -1.30877,1.28878 -2.09403,1.80429c-1.7014,1.20286 -4.12268,-0.85918 -4.12268,-3.60858c0,-1.63245 0.52364,-2.83531 1.70153,-3.60858c0.98151,-0.60143 2.02852,-1.11694 3.14104,-1.11694c0.58888,0 1.11239,-0.17184 1.7014,-0.42959c2.35578,-1.20286 4.77706,-1.80429 7.19821,-2.83531c1.11252,-0.51551 2.22503,-0.85918 3.27204,-1.28878c0.98151,-0.42959 1.57052,-1.54653 1.63589,-2.92123c0,-2.14796 0,-4.29592 0,-6.35797c0,-5.5847 0,-11.25532 0,-16.84002c0,-6.44389 -0.06537,-12.88777 -0.06537,-19.33166c0,-4.89735 0,-9.70879 0,-14.60614c0,-7.30307 0,-14.52022 0,-21.82329c0,-4.89735 0,-9.88062 0,-14.77798c0,-5.24103 0.06537,-10.39614 0.06537,-15.63716c0,-0.77327 -0.06537,-1.46061 -0.06537,-2.23388c-0.08518,-0.0994 -0.17036,-0.18802 -0.25593,-0.2669c0.15084,-0.6692 0.27546,-1.37446 0.37186,-2.11734c1.09597,0.00031 2.167,-0.02209 3.22149,0.06444c0.65438,0 1.37414,0 2.02852,0c0.25351,0 0.50701,-0.00339 0.76052,-0.00984c-0.00629,0.69951 0.00754,1.31772 0.04769,1.81857c-0.19603,0.06883 -0.39849,0.13238 -0.61184,0.16739zM245.29524,87.66566c-0.06537,1.20286 -0.19625,2.14796 -0.19625,3.17898c0,4.89735 0.13088,9.79471 0.06537,14.69206c0,1.80429 0,3.69449 0,5.49878c-0.06537,4.12409 0.0655,8.33409 0,12.45818c0,5.06919 -0.06537,10.13838 0,15.20757c0.0655,3.43674 0,6.78756 0,10.2243c0,6.78756 -0.19625,13.4892 0,20.27676c0.0655,3.43674 0,6.9594 0,10.39614c0,4.12409 -0.06537,8.33409 -0.06537,12.45818c0,2.3198 0,4.6396 0,6.9594c0,0.77327 -0.0655,1.54653 0.32713,2.23388c0.71989,0.25776 1.37427,0.42959 2.09416,0.08592c0.26175,-1.28878 0.13088,-2.57755 0.13088,-3.78041c-0.0655,-5.5847 -0.0655,-11.25532 -0.0655,-16.84002c0,-2.23388 -0.06537,-4.55368 0.0655,-6.78756c0.13088,-1.71837 -0.0655,-3.52266 -0.0655,-5.32695c0,-5.92837 0,-11.77083 0,-17.69921c0,-1.46061 -0.13088,-2.83531 0,-4.29592c0.13088,-1.71837 0.0655,-3.43674 0,-5.06919c0,-2.23388 0.0655,-4.55368 0,-6.78756c-0.06537,-3.69449 -0.06537,-7.38899 -0.06537,-11.08348c0,-2.57755 0.06537,-5.24103 0.06537,-7.81858c0,-1.80429 -0.19625,-3.69449 -0.06537,-5.49878c0.19625,-2.74939 -0.0655,-5.41286 0,-8.16226c0.06537,-1.46061 0,-2.83531 0,-4.29592c0,-2.49164 0,-4.89735 0,-7.38899c0,-1.11694 0,-2.14796 -0.26175,-3.2649c-0.52364,0.17184 -1.17802,0.34367 -1.96328,0.42959zM261.32781,208.81071c-0.13088,-0.08592 -0.26175,-0.25776 -0.39263,-0.34367c-1.50515,-0.60143 -2.94479,-1.28878 -4.51531,-1.71837c-1.96315,-0.60143 -3.79542,-1.3747 -5.6932,-2.14796c-0.26175,-0.08592 -0.52351,-0.42959 -0.91614,0c-0.06537,0.60143 -0.13088,1.28878 0.19638,1.97612c3.59904,1.20286 7.13284,2.92123 10.601,4.72552c0.52351,-0.77327 0.85076,-1.54653 0.71989,-2.49164zM242.61233,204.51478c-0.13088,0 -0.26175,-0.08592 -0.32726,-0.08592c-3.40279,1.28878 -6.80558,2.57755 -10.2085,3.86633c-0.26175,0.08592 -0.65438,0.17184 -0.78526,0.9451c0.19638,0.60143 0.26175,1.54653 0.98164,1.97612c1.96315,-1.11694 3.9918,-2.06204 6.02032,-2.92123c1.17789,-0.51551 2.42128,-0.9451 3.59917,-1.46061c0.78526,-0.25776 0.91614,-0.60143 0.91614,-1.63245c-0.06537,-0.17184 -0.13088,-0.42959 -0.19625,-0.68735zM244.31373,206.83458c1.43964,0.25776 2.87928,0.77327 4.31893,-0.08592c0.0655,-1.28878 0.19638,-2.49164 -0.39263,-3.69449c-1.30877,0.25776 -2.48666,-0.08592 -3.73005,-0.34367c-0.458,1.3747 -0.78526,2.57755 -0.19625,4.12409z"></path><path fill="#cde6e7" d="M244.09528,87.66566c0.78526,-0.08592 1.43964,-0.25776 2.15953,-0.34367c0.26175,1.11694 0.26175,2.23388 0.26175,3.2649c0,2.49164 0,4.89735 0,7.38899c0,1.46061 0,2.83531 0,4.29592c-0.06537,2.74939 0.19638,5.41286 0,8.16226c-0.13088,1.80429 0.0655,3.69449 0.0655,5.49878c0,2.57755 -0.0655,5.24103 -0.0655,7.81858c0,3.69449 0,7.38899 0.0655,11.08348c0,2.23388 -0.0655,4.46776 0,6.78756c0,1.71837 0.06537,3.43674 0,5.06919c-0.13088,1.46061 0.06537,2.83531 0,4.29592c-0.0655,5.92837 -0.0655,11.77083 0,17.69921c0,1.80429 0.19625,3.52266 0.06537,5.32695c-0.13088,2.23388 -0.06537,4.55368 -0.06537,6.78756c0,5.5847 -0.0655,11.25532 0.06537,16.84002c0,1.20286 0.13088,2.49164 -0.13088,3.78041c-0.71976,0.34367 -1.43964,0.17184 -2.09403,-0.08592c-0.39263,-0.68735 -0.32726,-1.46061 -0.32726,-2.23388c0,-2.3198 0,-4.6396 0,-6.9594c0,-4.12409 0.0655,-8.33409 0.0655,-12.45818c0,-3.43674 0.06537,-6.9594 0,-10.39614c-0.13088,-6.78756 0.06537,-13.4892 0,-20.27676c0,-3.43674 0.06537,-6.78756 0,-10.2243c-0.0655,-5.06919 0,-10.13838 0,-15.20757c0,-4.12409 -0.13088,-8.33409 0,-12.45818c0.06537,-1.80429 0,-3.69449 0,-5.49878c0,-4.89735 -0.0655,-9.79471 -0.0655,-14.69206c-0.19625,-1.11694 -0.06537,-2.06204 0,-3.2649z"></path><path fill="#cae2e3" d="M260.12786,208.81071c0.13088,0.9451 -0.19638,1.71837 -0.71989,2.49164c-3.46816,-1.80429 -7.00196,-3.43674 -10.601,-4.72552c-0.32726,-0.68735 -0.26175,-1.3747 -0.19638,-1.97612c0.39263,-0.42959 0.65438,-0.08592 0.91614,0c1.89778,0.77327 3.79555,1.54653 5.6932,2.14796c1.50515,0.51551 3.01016,1.11694 4.51531,1.71837c0.13088,0.08592 0.26175,0.17184 0.39263,0.34367z"></path><path fill="#cae2e3" d="M241.41238,204.51478c0.06537,0.25776 0.13088,0.51551 0.13088,0.77327c0,1.03102 -0.13088,1.28878 -0.91614,1.63245c-1.17789,0.51551 -2.42128,0.9451 -3.59917,1.46061c-2.02865,0.85918 -4.05717,1.80429 -6.02045,2.92123c-0.71976,-0.51551 -0.78526,-1.3747 -0.98151,-1.97612c0.13088,-0.68735 0.458,-0.77327 0.78526,-0.9451c3.40279,-1.28878 6.80558,-2.57755 10.2085,-3.86633c0.13088,-0.08592 0.26175,0 0.39263,0z"></path><path fill="#c8dfe0" d="M243.11378,206.83458c-0.65438,-1.54653 -0.26175,-2.74939 0.19625,-4.12409c1.24339,0.34367 2.48678,0.68735 3.73005,0.34367c0.58901,1.20286 0.45813,2.40572 0.39263,3.69449c-1.37414,0.85918 -2.81391,0.34367 -4.31893,0.08592z"></path><path fill="#000000" d="M237.88235,83.58404c-0.20236,0.14334 -0.3782,0.08322 -0.57382,-0.02134c-0.29642,-0.18744 -0.55138,-0.42529 -0.83398,-0.62953c-0.09184,0.00895 -0.18369,0.0179 -0.25873,0.04067c-1.62929,0.40604 -3.17413,0.09304 -4.69842,-0.48466c-0.32106,-0.12323 -0.65593,-0.22966 -0.92472,-0.4507c-0.05039,-0.04144 -0.1314,-0.07991 -0.19263,-0.07394c-0.33675,0.03282 -0.55514,-0.14677 -0.80414,-0.32339c-0.2154,-0.14898 -0.40317,-0.33156 -0.60476,-0.49734c-0.11759,-0.09671 -0.20756,-0.22701 -0.20866,-0.39688c-0.0011,-0.16987 -0.09405,-0.33079 -0.17019,-0.47789c-0.52596,-0.79862 -0.90482,-1.67339 -1.15039,-2.6075c-0.12875,-0.52828 -0.14886,-1.05172 -0.15516,-1.59194c-0.0159,-1.59005 0.4285,-3.05499 1.20779,-4.4135c0.35809,-0.60664 0.81398,-1.16101 1.33708,-1.66011c0.39578,-0.37853 0.88152,-0.62676 1.37024,-0.84436c1.55502,-0.6924 3.18354,-0.78932 4.84001,-0.44084c0.31509,0.062 0.62233,0.20204 0.92958,0.34207c0.20943,0.08776 0.41589,0.1449 0.65483,0.0598c0.20833,-0.08212 0.41478,-0.02498 0.61041,0.07958c0.29642,0.18744 0.5652,0.40848 0.83398,0.62953c0.084,0.06907 0.12356,0.15794 0.16312,0.2468c0.11085,0.3446 0.32138,0.60222 0.57635,0.84006c0.55735,0.48651 0.94295,1.11339 1.34237,1.72346c0.14632,0.23297 0.27884,0.48275 0.36692,0.75231c0.30083,0.86692 0.55425,1.72302 0.58253,2.64741c0.25198,0.20722 0.50696,0.44507 0.77574,0.66611c0.1008,0.08289 0.21839,0.1796 0.20269,0.33565c-0.00188,0.13926 0.11273,0.20534 0.21353,0.28824c0.65814,0.56941 1.3301,1.12201 1.98825,1.69142c1.48129,1.24635 2.97938,2.50651 4.43304,3.78645c1.42006,1.25231 2.88157,2.45422 4.32926,3.67294c0.23519,0.19341 0.42595,0.40661 0.66113,0.60002c1.14233,0.93943 2.28465,1.87886 3.41317,2.83508c0.20159,0.16578 0.4308,0.29797 0.5327,0.55072c0.03957,0.08886 0.13738,0.14113 0.22137,0.21021c0.83995,0.69075 1.68288,1.41213 2.52283,2.10289c0.0336,0.02763 0.08399,0.06907 0.11759,0.0967c0.2826,0.20424 0.32029,0.43236 0.24446,0.76425c-0.26293,1.1073 -0.83908,2.01334 -1.72844,2.71812c-0.23,0.17694 -0.49359,0.32625 -0.77696,0.43113c-0.20833,0.08211 -0.39798,0.03879 -0.57979,-0.08256c-0.54541,-0.36406 -1.10465,-0.71132 -1.66686,-1.08919c-0.3972,-0.27033 -0.78358,-0.58808 -1.22224,-0.80802c-0.95831,-0.47833 -1.76765,-1.17207 -2.68452,-1.70081c-0.50883,-0.30581 -1.0285,-0.56421 -1.52351,-0.88682c-0.52862,-0.35024 -1.06806,-0.65308 -1.59369,-0.9727c-0.95346,-0.58698 -1.89608,-1.22137 -2.86335,-1.79155c-1.29131,-0.72402 -2.52737,-1.51525 -3.76342,-2.30647c-0.42782,-0.26735 -0.85564,-0.53471 -1.28346,-0.80205c-0.66003,-0.43015 -1.33684,-0.87411 -1.99687,-1.30426c-0.36361,-0.24271 -0.73805,-0.438 -1.10166,-0.6807c-0.39423,-0.23972 -0.71341,-0.5022 -1.11061,-0.77254zM237.99254,82.97066c0.26657,-0.1187 0.49956,-0.26502 0.69595,-0.46959c0.51038,-0.31243 0.91699,-0.73838 1.32359,-1.16432c0.52011,-0.52972 0.98684,-1.1315 1.43976,-1.71648c0.52199,-0.66898 0.83455,-1.4257 1.14412,-2.21305c0.02166,-0.09483 0.04332,-0.18965 0.07582,-0.33189c-0.13439,-0.11052 -0.26878,-0.22105 -0.40317,-0.33156c-0.0336,-0.02763 -0.08101,-0.03846 -0.14522,-0.06311c-0.0967,0.11759 -0.17661,0.249 -0.23972,0.39422c-0.11539,0.24304 -0.25055,0.44163 -0.36593,0.68467c-0.31366,0.58686 -0.79233,1.06618 -1.15639,1.6116c-0.20425,0.2826 -0.37489,0.59283 -0.61273,0.8478c-0.53393,0.54652 -0.98386,1.16211 -1.58498,1.65337c-0.15794,0.12356 -0.32969,0.26392 -0.48762,0.38748c-0.15605,-0.01569 -0.23298,0.14633 -0.33565,0.2027c-0.13329,0.05935 -0.26657,0.1187 -0.40174,0.3173c0.31509,0.062 0.49203,0.292 0.74888,0.39058c0.08587,-0.07018 0.24192,-0.05448 0.30503,-0.19971zM239.11631,82.76841c-0.46894,0.26204 -0.56862,0.34902 -0.71463,0.59504c0.2154,0.14898 0.41401,0.28415 0.62941,0.43313c0.11759,0.09671 0.25684,0.09859 0.39013,0.03924c0.08886,-0.03956 0.15793,-0.12356 0.24679,-0.16313c0.32482,-0.15528 0.61007,-0.39941 0.81432,-0.68201c0.1807,-0.04851 0.29122,-0.18291 0.40175,-0.3173c0.63848,-0.74214 1.27994,-1.45366 1.83443,-2.26488c0.24271,-0.36361 0.46861,-0.74103 0.6639,-1.11547c0.14003,-0.30724 0.29387,-0.63129 0.25807,-0.99866c-0.21839,-0.1796 -0.43677,-0.35919 -0.65516,-0.53879c-0.07693,0.16202 -0.14003,0.30725 -0.18932,0.43567c-0.25243,0.58089 -0.53846,1.13415 -0.89169,1.63215c-0.44695,0.64621 -0.97789,1.22334 -1.49203,1.81428c-0.23485,0.28558 -0.55669,0.47148 -0.77475,0.77088c-0.24193,0.05448 -0.39688,0.20866 -0.52121,0.35985zM259.52663,96.06156c0.2942,-0.1523 0.50441,-0.37367 0.68102,-0.62267c0.03062,-0.00298 0.07505,-0.02276 0.08886,-0.03956c0.31476,-0.41699 0.59593,-0.86161 0.74867,-1.35552c0.0956,-0.28746 0.208,-0.56111 0.16137,-0.88107c-0.94074,-0.77364 -1.88148,-1.54729 -2.87262,-2.36238c-0.14677,0.55514 -0.39434,1.02739 -0.65871,1.48583c-0.22292,0.40804 -0.54962,0.70257 -0.80614,1.08298c-0.11052,0.13439 -0.22402,0.23817 -0.33454,0.37256c-0.24977,0.13251 -0.47977,0.30946 -0.70379,0.54763c0.50397,0.41446 1.08486,0.66688 1.58286,1.02011c0.52861,0.35024 1.07104,0.68369 1.58286,1.02011c0.24193,-0.05448 0.38605,-0.16125 0.53017,-0.26801zM255.80466,93.7047c0.1807,-0.04852 0.30802,-0.16909 0.41854,-0.30348c0.17772,-0.07913 0.28525,-0.24414 0.42639,-0.38152c0.40362,-0.45656 0.72325,-0.98218 0.99546,-1.51865c0.15384,-0.32405 0.27409,-0.67572 0.29952,-1.04906c-0.0672,-0.05526 -0.12058,-0.12732 -0.18778,-0.18258c-0.82315,-0.67694 -1.62949,-1.34006 -2.43883,-2.03381c-0.85973,-0.73519 -1.70266,-1.45655 -2.56239,-2.19174c-1.26291,-1.06675 -2.4952,-2.13648 -3.75811,-3.20323c-1.40028,-1.20789 -2.82521,-2.35155 -4.19786,-3.59303c-0.22137,-0.21021 -0.48717,-0.40064 -0.73915,-0.60787c-0.08477,0.24005 -0.12212,0.49093 -0.2405,0.70334c-0.33234,0.7123 -0.77929,1.35851 -1.25983,1.97709c-0.44209,0.53757 -0.90096,1.06132 -1.35985,1.58507c-0.21319,0.19075 -0.39578,0.37853 -0.60897,0.56929c-0.21132,0.0515 -0.30205,0.23032 -0.44617,0.33708c-0.15794,0.12356 -0.33565,0.20269 -0.457,0.3845c0.14036,0.17175 0.30238,0.24868 0.43379,0.32858c1.1431,0.63031 2.19249,1.40882 3.29415,2.08952c0.70743,0.44098 1.41487,0.88196 2.13612,1.30614c0.95346,0.58698 1.90393,1.14334 2.84058,1.7165c0.77165,0.46562 1.54329,0.93125 2.30113,1.41368c0.82204,0.50707 1.61348,1.01713 2.42171,1.541c0.74104,0.46861 1.49887,0.95103 2.27052,1.41666c0.14113,-0.13737 0.32482,-0.15528 0.41854,-0.30348zM237.9083,69.58159c-0.15274,0.49392 -0.37566,0.90195 -0.58179,1.32381c-0.21994,0.43865 -0.40927,0.87432 -0.646,1.29916c-0.22292,0.40804 -0.49325,0.80524 -0.73297,1.19947c-0.25353,0.41102 -0.50707,0.82205 -0.79122,1.23605c-0.25652,0.38041 -0.54366,0.7638 -0.80018,1.14421c-0.28713,0.38339 -0.64146,0.71152 -0.8614,1.15018c-0.39091,0.26989 -0.62765,0.69472 -0.93456,1.03369c-0.33753,0.34194 -0.65528,0.72833 -0.99281,1.07027c-0.32371,0.32515 -0.67804,0.65327 -1.01856,0.96461c-0.35433,0.32813 -0.76204,0.58421 -1.06598,0.95378c0.37554,0.36516 0.49314,0.46187 0.90604,0.57614c0.24977,-0.13251 0.49955,-0.26502 0.74336,-0.45876c0.28526,-0.24413 0.57051,-0.48828 0.88638,-0.73539c0.58731,-0.47446 1.144,-0.94593 1.62752,-1.5339c0.33157,-0.40318 0.64632,-0.82016 1.04508,-1.16808c0.08587,-0.07018 0.16877,-0.17097 0.21806,-0.2994c0.11539,-0.24304 0.31178,-0.4476 0.47756,-0.64919c0.60787,-0.73915 1.11494,-1.5612 1.59139,-2.38026c0.65307,-1.06806 1.16092,-2.19923 1.61837,-3.37185c0.10157,-0.22624 0.20314,-0.45247 0.16247,-0.7112c-0.22436,-0.24083 -0.49015,-0.43125 -0.85078,-0.64334zM230.32792,74.72437c0.10787,0.31399 0.27099,0.56078 0.4203,0.82437c0.11572,0.23596 0.30348,0.41854 0.56033,0.51713c0.46927,0.21695 0.91388,0.49812 1.30325,0.84648c0.0336,0.02763 0.09781,0.05228 0.11461,0.0661c0.11947,-0.04255 0.17473,-0.10975 0.19341,-0.23519c-0.00299,-0.03061 -0.02276,-0.07504 -0.03956,-0.08885c-0.44572,-0.45104 -0.86381,-0.93567 -1.25428,-1.4539c-0.05338,-0.07206 -0.14036,-0.17175 -0.23519,-0.19341c-0.32405,-0.15385 -0.64809,-0.30769 -1.06287,-0.28272zM232.03565,77.81839c-0.41213,-0.42341 -0.77982,-0.8666 -1.11691,-1.31276c-0.10676,-0.14412 -0.23817,-0.22402 -0.41401,-0.28415c-0.27067,-0.08178 -0.53536,-0.10234 -0.81685,-0.13672c-0.09483,-0.02166 -0.20645,-0.05715 -0.25574,0.07128c0.2165,0.31885 0.4024,0.64069 0.64653,0.92594c0.94041,0.29466 0.94042,0.29465 1.76058,0.94098c0.09184,-0.00895 0.1639,-0.06233 0.19639,-0.20457zM237.09727,75.05355c0.24712,0.31587 0.50805,0.61493 0.76899,0.914c0.05338,0.07206 0.10677,0.14412 0.18778,0.18258c0.36549,0.10345 0.71716,0.2237 1.10133,0.20171c-0.0358,-0.36737 -0.24635,-0.62499 -0.39864,-0.9192c-0.07614,-0.1471 -0.19075,-0.21319 -0.34979,-0.2595c-0.3793,-0.08665 -0.73098,-0.2069 -1.08564,-0.35776c-0.0168,-0.01381 -0.06122,0.00597 -0.12246,0.01194c-0.02465,0.06421 -0.06311,0.14522 -0.10157,0.22624zM233.04054,71.32314c0.08918,0.43943 0.25828,0.74744 0.41356,1.07227c0.07317,0.11649 0.17097,0.16877 0.26878,0.22105c0.48606,0.23077 0.93069,0.51194 1.33685,0.87411c0.05039,0.04144 0.11462,0.06609 0.16501,0.10753c0.16877,-0.17097 0.17959,-0.21839 0.0452,-0.32891c-0.43678,-0.35919 -0.78767,-0.78857 -1.03589,-1.2743c-0.15229,-0.29421 -0.3677,-0.44319 -0.65516,-0.53879c-0.17286,-0.02951 -0.31509,-0.062 -0.53834,-0.13295zM233.68263,75.84993c0.06907,-0.084 0.01569,-0.15605 -0.0515,-0.21131c-0.47037,-0.38683 -0.81342,-0.89423 -1.15647,-1.40163c-0.28668,-0.40472 -0.72832,-0.65527 -1.30513,-0.70722c0.05448,0.24193 0.20866,0.39688 0.29077,0.60521c0.18103,0.43048 0.50021,0.69297 0.89145,0.90207c0.42484,0.23673 0.86349,0.45668 1.20544,0.79421c0.06421,0.02465 0.09483,0.02166 0.12544,0.01868zM232.09028,72.51288c0.1187,0.26658 0.18401,0.4611 0.26315,0.63881c0.12168,0.29719 0.30946,0.47977 0.5999,0.60598c0.40207,0.16169 0.76568,0.40439 1.11548,0.6639c0.13141,0.0799 0.26579,0.19043 0.38339,0.28714c0.08587,-0.07018 0.04929,-0.12842 0.01569,-0.15605c-0.41809,-0.48463 -0.82237,-0.98606 -1.15459,-1.54088c-0.07018,-0.08588 -0.12356,-0.15794 -0.22137,-0.21021c-0.30426,-0.10941 -0.59471,-0.23564 -1.00164,-0.28869zM237.79963,73.85706c0.37444,0.19529 0.63538,0.49437 0.91013,0.77664c0.084,0.06907 0.10975,0.17473 0.22137,0.21021c0.17584,0.06012 0.6104,0.07958 0.91356,0.01913c-0.07128,-0.25575 -0.24524,-0.45512 -0.37477,-0.67428c-0.10974,-0.17473 -0.25796,-0.26845 -0.46142,-0.29498c-0.34571,-0.05902 -0.66378,-0.15164 -0.97401,-0.32229c-0.0168,-0.01381 -0.07803,-0.00785 -0.10864,-0.00486c-0.07206,0.05338 -0.12732,0.12057 -0.12622,0.29044zM234.18359,80.5141c0.31808,0.09262 0.58984,0.34427 0.93257,0.37268c0.0799,-0.13141 0.03735,-0.25088 0.02542,-0.37334c-0.03769,-0.22812 -0.02795,-0.4454 -0.14367,-0.68136c-0.38527,-0.14788 -0.69362,-0.45778 -1.08188,-0.63627c-0.11947,0.04255 -0.18854,0.12654 -0.22402,0.23817c0.20269,0.33565 0.36095,0.69109 0.49158,1.08012zM235.60446,77.17696c0.14036,0.17175 0.28072,0.3435 0.32924,0.5242c0.1198,0.43645 0.4192,0.6545 0.8153,0.75496c0.14224,0.03249 0.24303,0.11539 0.42672,0.09748c-0.02984,-0.30614 -0.11792,-0.5757 -0.20601,-0.84526c-0.02276,-0.07505 -0.08996,-0.13031 -0.18777,-0.18258c-0.30725,-0.14003 -0.58387,-0.28305 -0.89112,-0.42307c-0.05039,-0.04144 -0.14522,-0.06311 -0.28636,0.07426zM234.73411,78.23529c0.31432,0.37113 0.56741,0.74823 0.65659,1.18766c0.00895,0.09184 0.08996,0.1303 0.15716,0.18556c0.16501,0.10753 0.34383,0.19828 0.57791,0.22182c-0.04177,-0.4286 -0.15262,-0.7732 -0.28027,-1.13162c-0.04255,-0.11947 -0.11272,-0.20535 -0.22733,-0.27144c-0.21242,-0.11837 -0.41102,-0.25353 -0.62345,-0.3719c-0.0168,-0.01381 -0.07802,-0.00785 -0.10864,-0.00486c-0.04145,0.05039 -0.08289,0.10079 -0.15197,0.18479zM234.91364,70.72336c-0.22325,-0.07095 -0.4633,-0.15573 -0.68655,-0.22669c-0.03062,0.00298 -0.06123,0.00596 -0.12246,0.01193c-0.00077,0.30912 0.11792,0.5757 0.24745,0.79487c0.61748,0.31068 1.20135,0.59372 1.77251,1.06343c-0.07537,-0.45623 -0.44086,-0.55967 -0.6178,-0.78967c-0.22734,-0.27144 -0.41025,-0.56266 -0.59316,-0.85388zM229.73133,74.628c-0.33974,0.00221 -0.65184,-0.02918 -0.96285,0.1093c0.06233,0.1639 0.07725,0.31697 0.1366,0.45026c0.05935,0.13329 0.10488,0.28337 0.22247,0.38008c0.19263,0.07394 0.39013,0.03924 0.5768,0.05195c0.18667,0.01271 0.3625,0.07283 0.55702,0.00752c-0.17208,-0.33863 -0.34118,-0.64665 -0.53005,-0.99911zM231.18508,78.92116c-0.44871,-0.48165 -0.82723,-0.87743 -1.20576,-1.2732c-0.0336,-0.02763 -0.07018,-0.08588 -0.13141,-0.0799c-0.2815,-0.03437 -0.56895,-0.12998 -0.86614,-0.0083c0.17993,0.2606 0.34305,0.5074 0.51999,0.73739c0.56597,0.09936 1.08265,0.32715 1.68333,0.62401zM238.10431,77.45869c0.00675,-0.24789 -0.13362,-0.41964 -0.21275,-0.59736c-0.08211,-0.20833 -0.20567,-0.36626 -0.44572,-0.45104c-0.32106,-0.12323 -0.64211,-0.24647 -0.88327,-0.5011c-0.13031,0.08996 -0.16877,0.17097 -0.06797,0.25387c0.23817,0.22402 0.49314,0.46187 0.62863,0.74226c0.20866,0.39688 0.57117,0.46971 0.98109,0.55338zM236.36704,78.81785c0.10598,0.45324 0.1724,0.81763 0.25264,1.16522c0.11759,0.09671 0.22624,0.10157 0.32106,0.12323c0.10864,0.00486 0.23706,0.05415 0.36737,-0.03581c0.01758,-0.29531 -0.01226,-0.60145 -0.07272,-0.90461c-0.25983,-0.1292 -0.51668,-0.22778 -0.86836,-0.34803zM239.35916,76.85736c-0.37632,-0.05603 -0.70523,-0.10124 -1.05093,-0.16026c0.12168,0.29719 0.22656,0.58056 0.33144,0.86394c0.31509,0.062 0.58576,0.14379 0.90273,0.06654c-0.02686,-0.27553 -0.11196,-0.51447 -0.18324,-0.77021zM229.85689,73.37956c-0.06499,0.28448 0.11196,0.51447 0.19706,0.75342c0.02276,0.07505 0.12057,0.12732 0.1986,0.13517c0.25088,0.03736 0.47115,0.0777 0.70523,0.10124c0.0168,0.01381 0.04443,-0.01978 0.07206,-0.05338c-0.13848,-0.311 -0.30757,-0.61902 -0.44606,-0.93003c-0.23706,-0.05415 -0.48198,-0.03029 -0.72689,-0.00642zM232.49137,71.23759c-0.24005,-0.08477 -0.46329,-0.15573 -0.73285,-0.06764c0.04067,0.25873 0.05371,0.55105 0.18622,0.80083c0.15904,0.04631 0.29045,0.12622 0.4465,0.14191c0.14224,0.03249 0.26281,0.15981 0.43755,0.05007c-0.10787,-0.31399 -0.21573,-0.62798 -0.33741,-0.92517zM239.66199,76.31791c0.20645,0.05714 0.41478,-0.02498 0.63991,-0.09328c-0.09107,-0.30017 -0.10411,-0.5925 -0.28403,-0.8531c-0.24491,0.02387 -0.49877,-0.04411 -0.78513,0.03016c0.13848,0.311 0.29077,0.60521 0.42926,0.91622zM238.38738,72.59448c0.28857,0.26547 0.64919,0.47756 0.91013,0.77663c0.22436,0.24083 0.45545,0.23375 0.75563,0.14269c-0.08808,-0.26956 -0.24525,-0.45512 -0.40539,-0.6713c-0.44838,-0.00266 -0.83663,-0.18115 -1.26037,-0.24802zM230.17625,79.66849c0.03846,-0.08101 -0.01194,-0.12246 -0.06233,-0.1639c-0.20457,-0.19639 -0.43976,-0.38981 -0.63051,-0.603c-0.26392,-0.32968 -0.57006,-0.29984 -0.93445,-0.23342c0.08996,0.13031 0.14633,0.23298 0.21651,0.31885c0.16014,0.21618 0.33112,0.38494 0.64024,0.38572c0.18667,0.01271 0.36549,0.10345 0.52751,0.18037c0.05338,0.07206 0.10974,0.17473 0.24303,0.11538zM233.95127,81.61842c0.00188,-0.13926 -0.02387,-0.24491 -0.03283,-0.33675c0.00376,-0.27851 -0.10598,-0.45324 -0.3352,-0.58543c-0.19562,-0.10456 -0.3666,-0.27332 -0.5484,-0.39468c-0.05039,-0.04144 -0.08698,-0.09969 -0.20048,0.00409c0.16611,0.27741 0.30459,0.58841 0.39864,0.9192c0.02276,0.07505 0.10676,0.14411 0.17396,0.19938c0.16202,0.07693 0.30725,0.14004 0.54431,0.19419zM238.24986,78.00079c-0.22325,-0.07095 -0.44948,-0.17253 -0.69738,-0.17927c0.04663,0.31995 0.04586,0.62908 0.16754,0.92627c0.25088,0.03736 0.46031,0.12512 0.71308,0.02322c-0.04067,-0.25873 -0.05072,-0.52044 -0.18323,-0.77022zM231.84979,73.21623c-0.04663,-0.31995 -0.16534,-0.58653 -0.31166,-0.81951c-0.25088,-0.03736 -0.47115,-0.0777 -0.74667,-0.05085c-0.00973,0.21728 0.05559,0.4118 0.15152,0.60333c0.30127,0.07881 0.58874,0.17441 0.90681,0.26703zM237.79307,80.13139c0.20049,-0.00409 0.32592,0.01459 0.46219,-0.01414c0.09184,-0.00895 0.16689,-0.03172 0.24193,-0.05448c0.05415,-0.23707 0.0609,-0.48497 -0.0242,-0.72391c-0.23706,-0.05415 -0.47413,-0.10831 -0.72987,-0.03702c0.02686,0.27553 0.02011,0.52342 0.04995,0.82956zM232.07829,80.95108c0.04962,0.35057 0.07349,0.59549 0.11714,0.88483c0.05338,0.07206 0.18479,0.15197 0.32703,0.18446c0.12842,0.0493 0.21839,0.1796 0.38527,0.14788c0.07394,-0.19263 0.07283,-0.3625 0.02432,-0.54321c-0.2826,-0.20425 -0.53458,-0.41148 -0.85377,-0.67396zM228.64569,74.27024c0.15307,-0.01492 0.30614,-0.02984 0.45921,-0.04476c0.15307,-0.01492 0.28934,-0.04365 0.44241,-0.05857c-0.08808,-0.26956 -0.12577,-0.49767 -0.28293,-0.68323c-0.14224,-0.03249 -0.25873,0.04067 -0.3782,0.08322c-0.11947,0.04255 -0.28934,0.04365 -0.36925,0.17506c0.0347,0.1975 0.03581,0.36737 0.12875,0.52829zM239.59312,78.14801c-0.27851,-0.00376 -0.54917,-0.08555 -0.84935,0.00552c0.03769,0.22812 0.08919,0.43943 0.12687,0.66755c0.27851,0.00376 0.5126,0.0273 0.76237,-0.10521c0.01271,-0.18667 0.05902,-0.34571 -0.0399,-0.56785zM229.42385,77.02219c-0.21949,-0.34946 -0.4192,-0.6545 -0.6189,-0.95954c-0.15605,-0.01569 -0.29829,-0.04819 -0.4286,0.04177c0.03282,0.33675 0.19894,0.61416 0.35123,0.90837c0.15605,0.01569 0.3121,0.03139 0.46517,0.01647c0.08101,0.03846 0.12544,0.01868 0.2311,-0.00708zM236.26049,80.41984c-0.26768,-0.05118 -0.46927,-0.21695 -0.71418,-0.19308c0.01603,0.32294 0.02907,0.61527 0.12013,0.91544c0.2143,-0.02089 0.38229,0.11726 0.62123,0.03216c0.05415,-0.23707 -0.01414,-0.46219 -0.02718,-0.75452zM233.57414,70.29762c-0.28448,-0.06499 -0.53834,-0.13296 -0.78027,-0.07847c0.00409,0.20049 0.03879,0.39798 0.11792,0.5757c0.28448,0.06499 0.55514,0.14678 0.87322,0.2394c-0.1019,-0.25276 -0.1534,-0.46408 -0.21087,-0.73662zM234.38992,81.83835c0.27364,0.1124 0.49988,0.21398 0.77242,0.15651c0.02652,-0.20346 0.05604,-0.37632 -0.0231,-0.55404c-0.25685,-0.09858 -0.49988,-0.21397 -0.80414,-0.32339c-0.00675,0.24789 0.00033,0.47899 0.05481,0.72092zM231.43999,71.86545c-0.10488,-0.28338 -0.05371,-0.55106 -0.21087,-0.73662c-0.25088,-0.03736 -0.4622,0.01414 -0.67052,0.09626c0.00707,0.23109 -0.00266,0.44838 0.14069,0.65075c0.23109,-0.00707 0.44838,0.00266 0.7407,-0.01038zM240.39705,76.72529c-0.2143,0.02089 -0.40096,0.00817 -0.59249,0.1041c0.08808,0.26956 0.05371,0.55106 0.21684,0.79785c0.20049,-0.00409 0.35057,-0.04963 0.4917,-0.187c-0.02387,-0.24492 -0.07836,-0.48684 -0.11604,-0.71495zM228.48597,77.54627c-0.21728,-0.00973 -0.35355,0.01901 -0.50065,0.09516c0.03769,0.22812 0.12279,0.46706 0.32438,0.63284c0.18369,-0.0179 0.36736,-0.0358 0.56785,-0.03989c-0.07427,-0.28636 -0.26204,-0.46895 -0.39157,-0.68811zM240.57104,72.64434c-0.16688,0.03172 -0.30316,0.06045 -0.40285,0.14743c0.0851,0.23895 0.19783,0.44429 0.35498,0.62985c0.16987,-0.0011 0.30614,-0.02984 0.43644,-0.1198c-0.07128,-0.25575 -0.25905,-0.43832 -0.38858,-0.65748zM238.97807,79.92318c0.28448,0.06499 0.4118,-0.05559 0.51933,-0.2206c0.0967,-0.11759 0.15981,-0.26282 0.06687,-0.42374c-0.21728,-0.00973 -0.41776,-0.00564 -0.62609,0.07648c0.00409,0.20049 0.02199,0.38417 0.0399,0.56786zM235.57975,69.94762c-0.19263,-0.07394 -0.32702,-0.18445 -0.50772,-0.13594c0.00928,0.57084 0.39754,0.74932 0.88846,0.87145c-0.13251,-0.24977 -0.24823,-0.48574 -0.38074,-0.73551zM237.30688,81.16774c0.05714,-0.20645 0.05604,-0.37632 -0.01226,-0.60145c-0.1807,0.04851 -0.36251,-0.07283 -0.54023,0.0063c-0.06609,0.11461 -0.02652,0.20347 -0.03139,0.31211c0.01193,0.12246 -0.02355,0.23408 0.09405,0.33079c0.15605,0.01569 0.31211,0.03139 0.48982,-0.04774zM233.93319,75.40829c0.25276,-0.1019 0.30205,-0.23032 0.16467,-0.37145c-0.20457,-0.19639 -0.43677,-0.35919 -0.65217,-0.50817c-0.0672,-0.05526 -0.16501,-0.10754 -0.2815,-0.03438c0.2333,0.33267 0.49425,0.63174 0.769,0.91401zM241.21811,75.79538c0.12842,0.0493 0.23408,0.02354 0.33377,-0.06343c-0.01304,-0.29233 0.01835,-0.60443 -0.13394,-0.89864c-0.26657,0.1187 -0.35731,0.29751 -0.28602,0.55326c0.01193,0.12246 -0.02056,0.2647 0.0862,0.40882zM235.61642,73.01908c0.19341,-0.23519 0.20126,-0.31321 0.05007,-0.43755c-0.249,-0.17661 -0.51481,-0.36704 -0.81907,-0.47646c0.19186,0.38307 0.38074,0.73552 0.769,0.91401zM239.37157,71.91136c0.12057,0.12732 0.23817,0.22402 0.34195,0.33753c0.22137,0.21021 0.22137,0.21021 0.55403,-0.02309c-0.08996,-0.13031 -0.18291,-0.29122 -0.23629,-0.36328c-0.24491,0.02387 -0.4454,0.02796 -0.65969,0.04885zM229.52479,71.55764c0.0011,0.16987 -0.08964,0.34869 0.09515,0.50066c0.16688,-0.03172 0.33078,-0.09405 0.52828,-0.12875c-0.00409,-0.20049 0.02244,-0.40395 -0.07051,-0.56487c-0.1807,0.04851 -0.36438,0.06642 -0.55293,0.19297zM239.85596,74.0275c0.14931,0.26359 0.28481,0.54398 0.43412,0.80757c0.11163,0.03548 0.22027,0.04035 0.26956,-0.08808c-0.02686,-0.27553 -0.11494,-0.54509 -0.29188,-0.77508c-0.15605,-0.01569 -0.27851,-0.00376 -0.4118,0.05559zM233.45434,69.86118c0.0799,-0.13141 0.08179,-0.27066 0.03625,-0.42075c-0.09483,-0.02166 -0.18966,-0.04332 -0.28448,-0.06498c-0.12544,-0.01868 -0.23706,-0.05416 -0.35355,0.019c-0.08289,0.1008 -0.11836,0.21242 -0.08963,0.34869c0.22026,0.04034 0.47115,0.0777 0.69141,0.11804zM230.39678,72.89427c-0.00409,-0.20049 -0.06642,-0.36438 -0.15937,-0.52531c-0.21132,0.0515 -0.40882,0.08621 -0.58952,0.13472c-0.06013,0.17584 -0.01459,0.32593 0.07239,0.42562c0.23109,-0.00707 0.4622,-0.01414 0.67649,-0.03503zM234.52771,69.61749c-0.14224,-0.03249 -0.28448,-0.06499 -0.44054,-0.08068c-0.03062,0.00298 -0.05825,0.03658 -0.10268,0.05636c-0.00486,0.10864 -0.05415,0.23706 0.03879,0.39798c0.17584,0.06012 0.37146,0.16468 0.60255,0.15761c0.02652,-0.20346 -0.019,-0.35355 -0.09813,-0.53127zM236.70462,69.91524c-0.17097,-0.16876 -0.05261,-0.38119 -0.2206,-0.51933c-0.18965,-0.04332 -0.35465,-0.15086 -0.59957,-0.12699c-0.01271,0.18667 -0.01161,0.35654 0.18103,0.43048c0.19263,0.07394 0.33001,0.21507 0.63914,0.21585zM241.31383,74.24081c-0.06233,-0.1639 -0.11085,-0.34461 -0.15638,-0.49469c-0.00299,-0.03061 -0.0504,-0.04144 -0.084,-0.06907c-0.10267,0.05636 -0.25574,0.07129 -0.32968,0.26392c0.06531,0.19451 0.14743,0.40285 0.21573,0.62798c0.1639,-0.06233 0.26359,-0.14932 0.35433,-0.32814zM229.10878,72.67985c-0.18369,0.0179 -0.38417,0.02199 -0.53724,0.03691c-0.07394,0.19263 -0.07283,0.36251 -0.05791,0.51558c0.13141,0.0799 0.24491,-0.02387 0.35057,-0.04962c0.10566,-0.02575 0.22812,-0.03768 0.30802,-0.16909c0.02166,-0.09483 0.02652,-0.20347 -0.06344,-0.33377zM235.60586,82.10615c0.18667,0.01271 0.32592,0.01459 0.46518,0.01647c0.04742,0.01083 0.10566,-0.02575 0.13627,-0.02873c0.0967,-0.11759 0.09859,-0.25685 0.05305,-0.40694c-0.20346,-0.02653 -0.39312,-0.06985 -0.60742,-0.04896c-0.03249,0.14224 -0.03437,0.28149 -0.04708,0.46816zM239.72778,71.44398c-0.16312,-0.24679 -0.32625,-0.49358 -0.60288,-0.6366c-0.07394,0.19263 -0.16766,0.34085 -0.10235,0.53536c0.35466,0.15086 0.35466,0.15086 0.70523,0.10124zM237.77693,81.07557c0.55403,-0.02309 0.56786,-0.0399 0.64853,-0.48042c-0.20049,0.00409 -0.39799,0.03878 -0.59847,0.04287c-0.0799,0.13141 -0.08178,0.27067 -0.05006,0.43755zM232.26448,70.17803c-0.20346,-0.02653 -0.37334,-0.02542 -0.55106,0.05371c-0.01083,0.04742 -0.01868,0.12544 -0.02652,0.20346c0.00597,0.06123 0.02873,0.13627 0.0347,0.1975c0.20346,0.02653 0.40992,0.08366 0.60444,0.01835c0.03249,-0.14224 0.00077,-0.30913 -0.06155,-0.47303zM233.98741,82.46478c0.00784,-0.07802 0.01271,-0.18666 -0.02387,-0.24491c-0.14335,-0.20237 -0.33896,-0.30692 -0.62045,-0.34129c-0.01569,0.15605 -0.09262,0.31807 -0.03327,0.45136c0.22325,0.07095 0.42185,0.20612 0.6776,0.13483zM227.9063,76.1966c-0.03062,0.00298 -0.06123,0.00596 -0.12246,0.01193c-0.04521,0.32891 0.00144,0.64886 0.04807,0.96881c0.15904,0.04631 0.2647,0.02056 0.39202,-0.10001c-0.10488,-0.28338 -0.19594,-0.58354 -0.31763,-0.88073zM234.157,73.42402c0.1691,0.30802 0.30757,0.61903 0.60697,0.83709c0.0168,0.01381 0.10566,-0.02575 0.13329,-0.05935c0.06907,-0.084 0.05714,-0.20645 -0.02686,-0.27552c-0.17694,-0.23 -0.42296,-0.376 -0.71341,-0.50221zM231.22061,70.24887c-0.16987,0.0011 -0.33974,0.00221 -0.50364,0.06454c-0.0967,0.11759 -0.13218,0.22922 -0.08366,0.40992c0.1975,-0.0347 0.4118,-0.05559 0.5925,-0.1041c0.04929,-0.12842 0.05415,-0.23707 -0.0052,-0.37036zM240.14561,78.74317c0.21021,-0.22137 0.39279,-0.40914 0.44098,-0.70743c-0.19263,-0.07394 -0.35654,-0.01161 -0.51746,0.08134c-0.00973,0.21728 -0.02244,0.40395 0.07648,0.62609zM231.70185,82.16216c0.02354,-0.23408 0.02056,-0.2647 -0.02984,-0.30614c-0.15418,-0.15495 -0.37444,-0.1953 -0.5779,-0.22182c-0.07803,-0.00785 -0.1639,0.06233 -0.10456,0.19562c0.23408,0.02354 0.39721,0.27034 0.7123,0.33234zM228.5765,75.62134c-0.09107,-0.30017 -0.15152,-0.60333 -0.42328,-0.85498c-0.07582,0.33189 0.02906,0.61526 0.10035,0.87101c0.09781,0.05227 0.17285,0.02951 0.32294,-0.01602zM236.71173,81.72022c-0.01868,0.12544 -0.05416,0.23707 -0.07284,0.3625c0.22026,0.04034 0.42075,0.03625 0.52232,-0.18998c0.02465,-0.06421 0.0493,-0.12842 -0.00408,-0.20048c-0.12842,-0.0493 -0.2647,-0.02056 -0.4454,0.02796zM236.37405,71.7554c0.12433,-0.15119 0.146,-0.24602 -0.00221,-0.33974c-0.13141,-0.0799 -0.26281,-0.15981 -0.40804,-0.22292c-0.06421,-0.02465 -0.14224,-0.0325 -0.1807,0.04851c0.16014,0.21618 0.34493,0.36814 0.59095,0.51414zM230.78832,77.8627c0.16312,0.24679 0.35388,0.45999 0.61372,0.58919c0.0168,0.01381 0.10565,-0.02575 0.11947,-0.04255c0.02763,-0.0336 0.00486,-0.10865 -0.02873,-0.13628c-0.2322,-0.1628 -0.40616,-0.36217 -0.70445,-0.41036zM230.69636,79.13877c-0.20943,-0.08776 -0.39423,-0.23972 -0.6619,-0.29089c0.14931,0.26359 0.30647,0.44916 0.44871,0.48165c0.12842,0.0493 0.18368,-0.0179 0.21319,-0.19076zM241.28409,76.94789c0.11539,-0.24304 0.30879,-0.47822 0.20391,-0.76159c-0.38306,0.19186 -0.27819,0.47523 -0.20391,0.76159zM238.03326,74.66872c0.02763,-0.0336 0.02465,-0.06421 0.05228,-0.09781c-0.1818,-0.12135 -0.27774,-0.31289 -0.498,-0.35323c-0.09969,0.08698 -0.12434,0.15119 -0.08179,0.27066c0.15904,0.04631 0.33488,0.10644 0.52751,0.18037zM232.61004,75.7845c0.19374,0.24381 0.3509,0.42938 0.5663,0.57836c0.0336,0.02763 0.09482,0.02166 0.13627,-0.02873c0.01382,-0.0168 0.02465,-0.06421 0.02167,-0.09483c-0.16312,-0.24679 -0.36472,-0.41258 -0.72424,-0.4548zM234.42385,82.34498c-0.04929,0.12842 -0.05714,0.20646 0.02088,0.2143c0.15904,0.04631 0.33189,0.07582 0.50475,0.10533c0.10864,0.00486 0.15008,-0.04554 0.12433,-0.15119c-0.22623,-0.10157 -0.41887,-0.17551 -0.64996,-0.16844zM230.13564,70.8491c0.00486,-0.10864 0.02652,-0.20347 0.03139,-0.31211c-0.00299,-0.03061 -0.03658,-0.05824 -0.07316,-0.11649c-0.16578,0.20159 -0.36815,0.34493 -0.48055,0.61858c0.1975,-0.0347 0.33377,-0.06344 0.52232,-0.18998zM234.23676,78.84005c0.1818,0.12135 0.34681,0.2289 0.56221,0.37788c-0.02984,-0.30614 -0.13959,-0.48087 -0.32139,-0.60223c-0.11947,0.04255 -0.17771,0.07913 -0.24082,0.22435zM238.15473,73.2198c0.17286,0.02951 0.33002,0.21507 0.58278,0.11317c-0.36173,-0.38196 -0.44573,-0.45103 -0.5484,-0.39467c-0.06907,0.084 -0.07693,0.16202 -0.03438,0.28149zM231.81473,76.82006c0.08621,0.40882 0.28779,0.5746 0.59503,0.71463c-0.00817,-0.40096 -0.35388,-0.45999 -0.59503,-0.71463zM236.26928,70.20491c0.08322,0.3782 0.26801,0.53016 0.49723,0.66235c0.0168,0.01381 0.06123,-0.00597 0.08886,-0.03957c0.04145,-0.05039 0.03548,-0.11162 0.00188,-0.13925c-0.15418,-0.15495 -0.33598,-0.27631 -0.58796,-0.48353zM238.56588,72.20623c0.19263,0.07394 0.37444,0.19529 0.63018,0.12401c-0.12655,-0.18855 -0.29155,-0.29609 -0.43976,-0.38981c-0.13329,0.05935 -0.17174,0.14036 -0.19043,0.2658zM235.50515,69.18227c-0.2479,-0.00674 -0.43268,-0.15871 -0.63803,-0.04598c0.19374,0.24381 0.19374,0.2438 0.58089,0.25243c0.01083,-0.04742 0.02166,-0.09482 0.05714,-0.20645zM240.65733,76.06637c0.14301,-0.27663 0.08853,-0.51856 0.00343,-0.7575c-0.14224,-0.03249 -0.1975,0.0347 -0.18854,0.12654c0.06531,0.19451 0.11681,0.40583 0.18511,0.63096zM232.25332,69.74645c0.06609,-0.11461 0.11837,-0.21241 0.05902,-0.3457c-0.13925,-0.00188 -0.27851,-0.00377 -0.3782,0.08321c-0.05228,0.09781 -0.06012,0.17584 -0.02056,0.2647c0.11163,0.03548 0.20347,0.02653 0.33974,-0.00221zM236.49603,76.81192c-0.09294,-0.16092 -0.16611,-0.27741 -0.29453,-0.3267c-0.04742,-0.01083 -0.09184,0.00895 -0.13627,0.02873c-0.04145,0.05039 -0.06311,0.14522 0.0011,0.16987c0.1008,0.08289 0.21838,0.1796 0.4297,0.1281zM228.99462,71.82564c-0.17473,0.10975 -0.20126,0.31321 -0.27819,0.47523c0.38417,-0.02199 0.4118,-0.05559 0.27819,-0.47523zM229.90592,80.06569c-0.19673,-0.27442 -0.19673,-0.27442 -0.42185,-0.20612c0.07317,0.11649 0.16312,0.24679 0.42185,0.20612zM236.88518,75.41417c-0.10566,0.02575 -0.14711,0.07614 -0.12732,0.12058c0.06531,0.19451 0.12953,0.21916 0.40506,0.19231c-0.07614,-0.1471 -0.17694,-0.22999 -0.27774,-0.31288zM236.98391,69.60988c0.01492,0.15307 0.04366,0.28934 0.18888,0.35245c0.17064,-0.31023 0.15086,-0.35466 -0.18888,-0.35245zM229.02783,79.93494c0.0347,0.1975 0.15528,0.32482 0.25906,0.43832c0.0672,0.05526 0.15904,0.04631 0.17473,-0.10974c-0.10378,-0.11351 -0.22436,-0.24083 -0.43379,-0.32858zM234.08387,69.0272c0.14036,0.17175 0.2658,0.19043 0.40992,0.08367c0,0 0.01083,-0.04742 -0.00597,-0.06123c-0.08698,-0.09969 -0.23707,-0.05416 -0.40395,-0.02244zM235.43602,77.82693c0.04929,-0.12843 0.00973,-0.21728 -0.07128,-0.25574c-0.0336,-0.02763 -0.09483,-0.02166 -0.13925,-0.00188c-0.04443,0.01978 -0.05228,0.09781 -0.01868,0.12544c0.03658,0.05824 0.10378,0.1135 0.22922,0.13218zM231.15121,69.85387c0.17286,0.02951 0.27851,0.00376 0.32184,-0.18589c-0.20346,-0.02653 -0.29233,0.01304 -0.32184,0.18589z"></path><path fill="#87d7dc" d="M241.18347,82.89143c0.45889,-0.52375 0.91776,-1.04751 1.35985,-1.58507c0.49734,-0.60477 0.92749,-1.26479 1.25983,-1.97709c0.10157,-0.22624 0.14191,-0.44649 0.2405,-0.70334c0.26878,0.22104 0.51779,0.39766 0.73915,0.60787c1.35585,1.22767 2.79758,2.38514 4.19786,3.59303c1.24909,1.08355 2.4952,2.13648 3.7581,3.20323c0.85973,0.73519 1.70267,1.45656 2.5624,2.19174c0.80933,0.69374 1.6295,1.34006 2.43884,2.03381c0.0672,0.05526 0.13439,0.11052 0.18777,0.18258c-0.00862,0.38715 -0.13185,0.70821 -0.29951,1.04905c-0.27222,0.53646 -0.59185,1.06209 -0.99546,1.51865c-0.12433,0.15119 -0.23188,0.31619 -0.42639,0.38151c0.09074,-0.17882 0.27929,-0.30536 0.34726,-0.55922c-0.36549,-0.10345 -0.60963,-0.38871 -0.89223,-0.59295c-0.0168,-0.01381 -0.0336,-0.02763 -0.04742,-0.01083c-0.5641,-0.23862 -1.05127,-0.63925 -1.59071,-0.94208c-0.19562,-0.10456 -0.43268,-0.15871 -0.57304,-0.33046c-0.30835,-0.3099 -0.75186,-0.4212 -1.06021,-0.7311c-0.0168,-0.01381 -0.06421,-0.02465 -0.09781,-0.05228c-0.36063,-0.21209 -0.71827,-0.39356 -1.05127,-0.63925c-0.36957,-0.30393 -0.81608,-0.44585 -1.15802,-0.78338c-0.30127,-0.07881 -0.49203,-0.29199 -0.74103,-0.46861c-0.0336,-0.02763 -0.0504,-0.04144 -0.084,-0.06907c-0.4465,-0.14191 -0.74402,-0.49923 -1.13526,-0.70833c-0.39124,-0.2091 -0.71639,-0.53282 -1.09381,-0.75872c-0.42782,-0.26735 -0.88029,-0.47049 -1.24202,-0.85245c-0.0336,-0.02763 -0.084,-0.06908 -0.13141,-0.07991c-0.26768,-0.05118 -0.42782,-0.26735 -0.64322,-0.41633c-0.1008,-0.08289 -0.20458,-0.1964 -0.333,-0.24569c-0.20645,-0.05714 -0.32702,-0.18446 -0.47821,-0.30879c-0.084,-0.06907 -0.15418,-0.15495 -0.249,-0.17661c-0.30127,-0.07881 -0.50883,-0.30581 -0.72722,-0.48541c-0.084,-0.06907 -0.15417,-0.15495 -0.249,-0.17662c-0.25387,-0.06797 -0.42483,-0.23673 -0.60962,-0.3887c-0.30238,-0.24867 -0.70147,-0.37976 -0.99004,-0.64522c-0.03658,-0.05824 -0.12843,-0.04929 -0.19264,-0.07394z"></path><path fill="#b0eef2" d="M241.18347,82.89143c0.06421,0.02465 0.15606,0.01569 0.20646,0.05714c0.28857,0.26547 0.67384,0.41335 0.99003,0.64523c0.18479,0.15197 0.35576,0.32073 0.60962,0.3887c0.09483,0.02166 0.16501,0.10754 0.249,0.17661c0.21839,0.1796 0.43976,0.38981 0.72722,0.48541c0.09483,0.02166 0.15119,0.12434 0.249,0.17661c0.15119,0.12434 0.28558,0.23486 0.47821,0.3088c0.12842,0.0493 0.23221,0.1628 0.333,0.24569c0.2154,0.14898 0.37554,0.36516 0.64322,0.41634c0.04742,0.01083 0.09781,0.05227 0.13141,0.0799c0.34493,0.36814 0.8142,0.5851 1.24202,0.85245c0.39423,0.23972 0.71937,0.56343 1.09381,0.75872c0.39124,0.2091 0.68876,0.56642 1.13526,0.70833c0.03062,-0.00298 0.0504,0.04144 0.084,0.06907c0.21839,0.1796 0.43976,0.38981 0.74103,0.46861c0.32813,0.35433 0.77463,0.49623 1.15803,0.78337c0.31918,0.26248 0.69064,0.42717 1.05127,0.63926c0.0336,0.02763 0.06421,0.02465 0.09781,0.05228c0.30835,0.3099 0.75186,0.4212 1.06021,0.7311c0.17097,0.16877 0.39124,0.20911 0.57304,0.33046c0.52563,0.31963 1.02662,0.70346 1.59071,0.94208c0.0168,0.01381 0.04741,0.01083 0.04741,0.01083c0.2826,0.20424 0.52674,0.4895 0.89223,0.59295c-0.05415,0.23707 -0.2595,0.34979 -0.34726,0.55923c-0.11052,0.13439 -0.22104,0.26879 -0.41854,0.30349c-0.10079,-0.08289 -0.20457,-0.19639 -0.33299,-0.24569c-0.44948,-0.17253 -0.78844,-0.47944 -1.16886,-0.73596c-0.38041,-0.25652 -0.82989,-0.42905 -1.15802,-0.78338c-0.30127,-0.0788 -0.49203,-0.292 -0.74104,-0.46861c-0.0336,-0.02763 -0.08399,-0.06907 -0.13141,-0.0799c-0.22026,-0.04034 -0.36063,-0.21209 -0.52563,-0.31963c-0.084,-0.06907 -0.16799,-0.13815 -0.249,-0.17661c-0.43865,-0.21994 -0.88029,-0.47049 -1.26666,-0.78824c-0.05039,-0.04144 -0.10377,-0.1135 -0.16501,-0.10753c-0.23706,-0.05415 -0.39124,-0.20911 -0.55923,-0.34726c-0.17097,-0.16876 -0.43567,-0.18932 -0.62344,-0.3719c-0.25497,-0.23784 -0.57603,-0.36108 -0.87244,-0.54852c-0.3972,-0.27034 -0.83288,-0.45965 -1.21925,-0.7774c-0.0672,-0.05526 -0.13737,-0.14114 -0.2154,-0.14898c-0.18965,-0.04332 -0.32703,-0.18447 -0.49203,-0.292c-0.13439,-0.11052 -0.2826,-0.20424 -0.42782,-0.26735c-0.27364,-0.1124 -0.51967,-0.2584 -0.75485,-0.45181c-0.3666,-0.27332 -0.81608,-0.44584 -1.14421,-0.80017c-0.0336,-0.02763 -0.09781,-0.05227 -0.13141,-0.0799c-0.39423,-0.23972 -0.80226,-0.46264 -1.16886,-0.73596c-0.36957,-0.30393 -0.84967,-0.47347 -1.19162,-0.811c-0.05039,-0.04144 -0.12842,-0.0493 -0.19263,-0.07394c-0.24601,-0.146 -0.49502,-0.32261 -0.67196,-0.5526c0.05228,-0.09781 0.10754,-0.165 0.146,-0.24601c0.24381,-0.19374 0.44319,-0.3677 0.63958,-0.57227z"></path><path fill="#d1eaeb" d="M237.9083,69.58159c0.36063,0.21209 0.62642,0.40251 0.82315,0.67694c0.02387,0.24491 -0.0777,0.47115 -0.16247,0.71119c-0.47425,1.1588 -0.96529,2.30378 -1.61836,3.37184c-0.49325,0.80524 -1.00033,1.62729 -1.59139,2.38026c-0.16578,0.20159 -0.36218,0.40616 -0.47756,0.64919c-0.05228,0.09781 -0.13517,0.1986 -0.21806,0.2994c-0.39876,0.34792 -0.69672,0.77872 -1.04508,1.16808c-0.48651,0.55735 -1.04023,1.05944 -1.62753,1.5339c-0.30205,0.23032 -0.58731,0.47446 -0.88637,0.73539c-0.22701,0.20756 -0.49358,0.32625 -0.74336,0.45876c-0.39909,-0.13108 -0.5305,-0.21098 -0.90604,-0.57614c0.32073,-0.35576 0.71165,-0.62565 1.06598,-0.95378c0.34051,-0.31134 0.69484,-0.63947 1.01855,-0.96462c0.33753,-0.34195 0.67208,-0.71451 0.99281,-1.07027c0.32371,-0.32515 0.56046,-0.74998 0.93457,-1.03369c0.21994,-0.43865 0.57427,-0.76679 0.8614,-1.15018c0.27332,-0.3666 0.54365,-0.7638 0.80017,-1.14421c0.27033,-0.39721 0.52387,-0.80823 0.79122,-1.23605c0.23972,-0.39423 0.51006,-0.79143 0.73298,-1.19947c0.23674,-0.42484 0.42606,-0.8605 0.646,-1.29916c0.23375,-0.45545 0.45668,-0.86349 0.60942,-1.3574z"></path><path fill="#87d7dc" d="M240.57451,83.46072c-0.03846,0.08101 -0.09373,0.14821 -0.146,0.24602c0.17694,0.23 0.39533,0.40958 0.67196,0.5526c0.06421,0.02465 0.14224,0.0325 0.19263,0.07394c0.34195,0.33753 0.80823,0.52387 1.19162,0.811c0.35278,0.29012 0.77463,0.49624 1.16886,0.73596c0.0336,0.02763 0.09781,0.05228 0.13141,0.07991c0.32813,0.35433 0.77463,0.49623 1.14421,0.80017c0.21839,0.1796 0.4812,0.33941 0.75484,0.45181c0.16202,0.07693 0.31023,0.17064 0.42782,0.26735c0.15119,0.12434 0.27177,0.25166 0.49203,0.292c0.07803,0.00785 0.14821,0.09372 0.21541,0.14898c0.36957,0.30393 0.82205,0.50708 1.21925,0.77741c0.29642,0.18744 0.61748,0.31067 0.87245,0.54851c0.17097,0.16876 0.43567,0.18933 0.62344,0.37191c0.15418,0.15495 0.32515,0.32371 0.55923,0.34725c0.06421,0.02465 0.11461,0.0661 0.16501,0.10754c0.38637,0.31775 0.81122,0.55448 1.26666,0.78823c0.09781,0.05228 0.16799,0.13816 0.249,0.17661c0.15119,0.12434 0.30537,0.27929 0.52563,0.31963c0.04742,0.01083 0.09781,0.05228 0.13141,0.07991c0.21839,0.1796 0.43976,0.3898 0.74104,0.4686c0.32813,0.35433 0.77761,0.52686 1.15802,0.78338c0.38041,0.25652 0.73617,0.57725 1.16886,0.73596c0.12842,0.0493 0.2322,0.1628 0.33299,0.24569c-0.10753,0.16501 -0.29122,0.18291 -0.40472,0.28669c-0.77463,-0.49624 -1.52948,-0.94805 -2.27052,-1.41666c-0.82205,-0.50707 -1.61348,-1.01713 -2.42171,-1.541c-0.75783,-0.48243 -1.52947,-0.94805 -2.30112,-1.41368c-0.95346,-0.58698 -1.90392,-1.14334 -2.84058,-1.7165c-0.70743,-0.44098 -1.41487,-0.88196 -2.13612,-1.30614c-1.10166,-0.6807 -2.16486,-1.44241 -3.29415,-2.08951c-0.14821,-0.09372 -0.32404,-0.15385 -0.43379,-0.32858c0.12433,-0.15119 0.29906,-0.26094 0.457,-0.3845c0.10267,-0.05636 0.19341,-0.23519 0.38793,-0.30051z"></path><path fill="#61afb4" d="M256.90268,93.3968c0.25652,-0.38041 0.56642,-0.68875 0.80614,-1.08298c0.26436,-0.45844 0.51193,-0.93069 0.6587,-1.48583c0.97434,0.80128 1.93188,1.58874 2.87262,2.36239c0.03282,0.33676 -0.07958,0.6104 -0.16136,0.88106c-0.16656,0.51071 -0.45071,0.92472 -0.74867,1.35552c-0.01382,0.0168 -0.05824,0.03658 -0.08886,0.03957c0.02354,-0.23408 -0.15229,-0.2942 -0.31431,-0.37113c-0.40506,-0.19231 -0.7963,-0.40141 -1.11846,-0.69451c-0.0672,-0.05526 -0.13439,-0.11053 -0.2154,-0.14899c-0.40207,-0.1617 -0.72424,-0.4548 -1.08486,-0.66689c-0.21242,-0.11837 -0.37444,-0.19529 -0.60553,-0.18822z"></path><path fill="#61aeb3" d="M238.13302,81.87529c0.58432,-0.50508 1.05105,-1.10685 1.58498,-1.65337c0.23784,-0.25497 0.42528,-0.55138 0.61273,-0.8478c0.38085,-0.5316 0.84272,-1.02473 1.15639,-1.61159c0.13218,-0.22922 0.26436,-0.45843 0.36593,-0.68467c0.06311,-0.14522 0.14302,-0.27663 0.23972,-0.39423c0.06421,0.02465 0.11163,0.03548 0.14522,0.06311c0.13439,0.11052 0.26879,0.22104 0.40318,0.33156c-0.01868,0.12544 -0.04034,0.22027 -0.07582,0.33189c-0.29575,0.77054 -0.60533,1.55789 -1.14412,2.21305c-0.45292,0.58498 -0.91965,1.18676 -1.43975,1.71648c-0.40661,0.42594 -0.79641,0.8657 -1.3236,1.16432c0.03548,-0.11163 0.16876,-0.17097 0.12323,-0.32106c-0.15716,-0.18556 -0.33409,-0.41556 -0.64808,-0.30769z"></path><path fill="#61aeb3" d="M239.59011,82.39773c0.20126,-0.31321 0.52309,-0.49911 0.77475,-0.77088c0.51414,-0.59095 1.02828,-1.18189 1.49203,-1.81428c0.36704,-0.5148 0.65307,-1.06806 0.89169,-1.63215c0.06311,-0.14522 0.12622,-0.29045 0.18932,-0.43567c0.23519,0.19341 0.43677,0.35919 0.65516,0.53879c0.0358,0.36737 -0.08742,0.68842 -0.25807,0.99865c-0.19529,0.37444 -0.4044,0.76568 -0.6639,1.11547c-0.55448,0.81122 -1.19595,1.52273 -1.83443,2.26488c-0.11052,0.13439 -0.22104,0.26879 -0.40174,0.3173c-0.084,-0.06907 -0.15417,-0.15494 -0.249,-0.17661c-0.22325,-0.07095 -0.41102,-0.25353 -0.59581,-0.4055z"></path><path fill="#87d7dc" d="M256.90268,93.3968c0.20049,-0.00409 0.37632,0.05604 0.55813,0.17739c0.36063,0.21209 0.68279,0.50519 1.08486,0.66689c0.08101,0.03846 0.1482,0.09372 0.2154,0.14898c0.35278,0.29011 0.72722,0.48541 1.11846,0.69451c0.14522,0.06311 0.33785,0.13705 0.31431,0.37113c-0.19043,0.2658 -0.41743,0.47335 -0.68102,0.62266c-0.27663,-0.14301 -0.56708,-0.26923 -0.77463,-0.49624c-0.0336,-0.02763 -0.09781,-0.05228 -0.13141,-0.0799c-0.37743,-0.22591 -0.77165,-0.46562 -1.13526,-0.70833c-0.16501,-0.10754 -0.2994,-0.21805 -0.47822,-0.3088c-0.22623,-0.10157 -0.44163,-0.25055 -0.55734,-0.48651c0.05228,-0.09781 0.10753,-0.16501 0.14599,-0.24601c0.0967,-0.11759 0.22403,-0.23817 0.32074,-0.35577z"></path><path fill="#cce5e6" d="M230.32792,74.72437c0.40096,-0.00817 0.73883,0.12887 1.06287,0.28272c0.08101,0.03846 0.1818,0.12135 0.23519,0.19341c0.37665,0.53503 0.80856,1.00287 1.25428,1.4539c0.0168,0.01381 0.03658,0.05824 0.03956,0.08885c-0.00486,0.10864 -0.07394,0.19264 -0.19341,0.23519c-0.0336,-0.02763 -0.08101,-0.03847 -0.11461,-0.0661c-0.38936,-0.34836 -0.82017,-0.64632 -1.30325,-0.84648c-0.24304,-0.11539 -0.42782,-0.26736 -0.56033,-0.51713c-0.13549,-0.28039 -0.31244,-0.51038 -0.4203,-0.82437z"></path><path fill="#cce5e6" d="M232.03565,77.81839c-0.03249,0.14224 -0.10456,0.19562 -0.19639,0.20457c-0.83398,-0.62953 -0.83398,-0.62953 -1.76058,-0.94098c-0.25795,-0.26846 -0.44682,-0.62091 -0.64653,-0.92594c0.06311,-0.14522 0.17771,-0.07913 0.25574,-0.07128c0.2815,0.03437 0.54619,0.05493 0.81685,0.13672c0.17584,0.06012 0.30725,0.14003 0.41401,0.28415c0.33709,0.44617 0.70478,0.88936 1.11691,1.31276z"></path><path fill="#60adb2" d="M256.56813,93.76936c-0.03846,0.08101 -0.09372,0.14821 -0.146,0.24602c0.11572,0.23596 0.33111,0.38494 0.55734,0.48651c0.17882,0.09074 0.31322,0.20126 0.47822,0.3088c0.36361,0.24271 0.75784,0.48242 1.13526,0.70833c0.0336,0.02763 0.0978,0.05228 0.1314,0.07991c0.23817,0.22403 0.51182,0.33642 0.77463,0.49624c-0.14412,0.10676 -0.27442,0.19672 -0.48574,0.24822c-0.51182,-0.33642 -1.06806,-0.65307 -1.58286,-1.02011c-0.51182,-0.33642 -1.07889,-0.60566 -1.58286,-1.02011c0.23784,-0.25497 0.47082,-0.4013 0.7206,-0.53381z"></path><path fill="#cce5e6" d="M237.09727,75.05355c0.03846,-0.08101 0.06311,-0.14523 0.10157,-0.22624c0.06123,-0.00597 0.09184,-0.00895 0.12246,-0.01194c0.34085,0.16766 0.70633,0.27111 1.08564,0.35776c0.15904,0.04631 0.27365,0.1124 0.34979,0.2595c0.16611,0.27741 0.37665,0.53503 0.39864,0.9192c-0.38417,0.02199 -0.74965,-0.08146 -1.10133,-0.20171c-0.06421,-0.02464 -0.1344,-0.11052 -0.18778,-0.18258c-0.26094,-0.29907 -0.52187,-0.59813 -0.76899,-0.914z"></path><path fill="#cae2e3" d="M233.04054,71.32314c0.22325,0.07095 0.36549,0.10344 0.52453,0.14975c0.28746,0.0956 0.50286,0.24459 0.65516,0.53879c0.27884,0.48275 0.61592,0.92892 1.0359,1.2743c0.13439,0.11052 0.13737,0.14113 -0.04521,0.3289c-0.05039,-0.04144 -0.11461,-0.06609 -0.16501,-0.10753c-0.40616,-0.36217 -0.85078,-0.64334 -1.33684,-0.87411c-0.11461,-0.06609 -0.21241,-0.11836 -0.26878,-0.22104c-0.14146,-0.34162 -0.31056,-0.64964 -0.39975,-1.08907z"></path><path fill="#c9e1e2" d="M233.68263,75.84993c-0.03062,0.00298 -0.07803,-0.00785 -0.09483,-0.02166c-0.35874,-0.35134 -0.78358,-0.58808 -1.20544,-0.79421c-0.39124,-0.2091 -0.71042,-0.47159 -0.89145,-0.90207c-0.08211,-0.20833 -0.25309,-0.37709 -0.29078,-0.60521c0.57382,0.02133 1.03226,0.2857 1.30513,0.70722c0.34305,0.5074 0.65549,1.01778 1.15648,1.40162c0.03658,0.05824 0.10378,0.11351 0.02089,0.2143z"></path><path fill="#c9e1e2" d="M232.09028,72.51288c0.40693,0.05305 0.69738,0.17927 1.00462,0.3193c0.09781,0.05227 0.1818,0.12135 0.22137,0.21021c0.34603,0.53802 0.7365,1.05625 1.1546,1.54088c0.0336,0.02763 0.07018,0.08587 -0.01569,0.15605c-0.11759,-0.09671 -0.25198,-0.20722 -0.3834,-0.28713c-0.34979,-0.25951 -0.71341,-0.50221 -1.11548,-0.6639c-0.29044,-0.12622 -0.49502,-0.32261 -0.5999,-0.60599c-0.08211,-0.20833 -0.14743,-0.40284 -0.26613,-0.66942z"></path><path fill="#cae3e4" d="M237.79963,73.85706c-0.0011,-0.16987 0.06797,-0.25386 0.13705,-0.33785c0.03062,-0.00298 0.07803,0.00784 0.10864,0.00486c0.29642,0.18744 0.63128,0.29388 0.97401,0.32229c0.20346,0.02653 0.35168,0.12024 0.46142,0.29498c0.12953,0.21916 0.28967,0.43534 0.37477,0.67428c-0.30316,0.06046 -0.75154,0.0578 -0.91356,-0.01913c-0.11163,-0.03548 -0.15119,-0.12433 -0.22137,-0.21021c-0.2994,-0.21806 -0.54652,-0.53393 -0.92096,-0.72922z"></path><path fill="#c8e0e1" d="M234.18359,80.5141c-0.13063,-0.38903 -0.30271,-0.72767 -0.5054,-1.06331c0.04929,-0.12843 0.10456,-0.19562 0.22403,-0.23817c0.37146,0.16467 0.6966,0.48839 1.08187,0.63627c0.11572,0.23596 0.10598,0.45324 0.14367,0.68135c0.01193,0.12246 0.05448,0.24193 -0.02542,0.37334c-0.32891,-0.0452 -0.58387,-0.28304 -0.91875,-0.38948z"></path><path fill="#cbe4e5" d="M235.60446,77.17696c0.14114,-0.13737 0.22215,-0.09891 0.30316,-0.06045c0.30725,0.14003 0.59769,0.26625 0.89112,0.42308c0.08101,0.03846 0.14821,0.09372 0.18777,0.18258c0.08808,0.26956 0.16235,0.55592 0.20601,0.84526c-0.16987,0.0011 -0.28447,-0.06499 -0.42672,-0.09749c-0.42672,-0.09748 -0.72612,-0.31553 -0.8153,-0.75496c-0.0515,-0.21131 -0.19186,-0.38306 -0.34604,-0.53802z"></path><path fill="#c8e0e1" d="M234.73411,78.23529c0.06907,-0.08399 0.11052,-0.13439 0.15197,-0.18479c0.04742,0.01083 0.09184,-0.00895 0.10864,0.00486c0.21242,0.11837 0.41102,0.25353 0.62345,0.3719c0.11461,0.06609 0.18478,0.15197 0.22733,0.27144c0.12765,0.35841 0.22468,0.71982 0.28027,1.13162c-0.2479,-0.00674 -0.4129,-0.11429 -0.57791,-0.22182c-0.0672,-0.05526 -0.13439,-0.11051 -0.15716,-0.18556c-0.08918,-0.43943 -0.34227,-0.81653 -0.65659,-1.18766z"></path><path fill="#85d5d9" d="M239.59011,82.39773c0.18479,0.15197 0.37256,0.33454 0.62642,0.40251c0.09483,0.02166 0.16501,0.10754 0.249,0.17662c-0.21806,0.2994 -0.4895,0.52673 -0.81432,0.68201c-0.20756,-0.22701 -0.498,-0.35322 -0.72722,-0.48541c0.01271,-0.18667 0.15981,-0.26282 0.20911,-0.39124c0.10753,-0.165 0.26249,-0.31918 0.457,-0.3845z"></path><path fill="#c6dede" d="M234.91364,70.72336c0.18291,0.29122 0.36582,0.58244 0.57934,0.87068c0.19374,0.24381 0.57304,0.33046 0.6178,0.78967c-0.57117,-0.46972 -1.17184,-0.76658 -1.77251,-1.06343c-0.11572,-0.23596 -0.23441,-0.50254 -0.24745,-0.79487c0.06123,-0.00597 0.09185,-0.00895 0.12246,-0.01193c0.23706,0.05415 0.46031,0.12511 0.70036,0.20988z"></path><path fill="#cae3e3" d="M229.73133,74.628c0.18887,0.35245 0.35798,0.66047 0.54685,1.01292c-0.21132,0.0515 -0.38716,-0.00862 -0.55703,-0.00752c-0.18667,-0.01271 -0.38416,0.02199 -0.5768,-0.05195c-0.11759,-0.09671 -0.16312,-0.24679 -0.22247,-0.38008c-0.05935,-0.13329 -0.10488,-0.28338 -0.1366,-0.45026c0.2942,-0.1523 0.60631,-0.1209 0.94605,-0.12311z"></path><path fill="#cae3e4" d="M231.18508,78.92116c-0.60068,-0.29686 -1.11735,-0.52465 -1.70012,-0.63783c-0.16312,-0.24679 -0.34007,-0.47678 -0.52,-0.73739c0.31399,-0.10787 0.58465,-0.02608 0.86615,0.00829c0.04742,0.01083 0.09781,0.05228 0.13141,0.07991c0.37853,0.39578 0.75706,0.79155 1.22256,1.28701z"></path><path fill="#c8e0e1" d="M238.10431,77.45869c-0.40693,-0.05305 -0.76944,-0.12588 -0.98109,-0.55338c-0.15229,-0.29421 -0.39046,-0.51823 -0.62863,-0.74226c-0.1008,-0.08289 -0.04852,-0.1807 0.06797,-0.25387c0.24115,0.25464 0.56221,0.37787 0.88327,0.5011c0.24005,0.08477 0.36361,0.24271 0.44572,0.45104c0.07913,0.17772 0.2027,0.33565 0.21275,0.59736z"></path><path fill="#85d4d9" d="M238.13302,81.87529c0.33078,-0.09405 0.49093,0.12213 0.6787,0.30471c0.04553,0.15009 -0.07095,0.22325 -0.12323,0.32106c-0.19639,0.20457 -0.42938,0.3509 -0.69595,0.46959c-0.17097,-0.16876 -0.41102,-0.25354 -0.50993,-0.47568c0.05228,-0.09781 0.09372,-0.14821 0.14898,-0.2154c0.17175,-0.14036 0.3435,-0.28072 0.50144,-0.40428z"></path><path fill="#c7dfe0" d="M236.36704,78.81785c0.33488,0.10644 0.60852,0.21883 0.89598,0.31444c0.06045,0.30316 0.09029,0.6093 0.07272,0.90461c-0.13031,0.08996 -0.25873,0.04067 -0.36737,0.0358c-0.10864,-0.00486 -0.21728,-0.00973 -0.32106,-0.12323c-0.09107,-0.30017 -0.17429,-0.67838 -0.28027,-1.13162z"></path><path fill="#c8e0e1" d="M239.35916,76.85736c0.07128,0.25575 0.15639,0.49469 0.16942,0.78701c-0.31697,0.07725 -0.58764,-0.00454 -0.90273,-0.06654c-0.10488,-0.28338 -0.20977,-0.56674 -0.33145,-0.86393c0.37333,0.02542 0.68843,0.08743 1.06475,0.14346z"></path><path fill="#c4dcdd" d="M229.85689,73.37956c0.24491,-0.02387 0.48982,-0.04774 0.74369,0.02023c0.15229,0.29421 0.29077,0.60521 0.44605,0.93003c-0.02763,0.0336 -0.05526,0.06719 -0.07206,0.05338c-0.23408,-0.02354 -0.48496,-0.0609 -0.70523,-0.10124c-0.09483,-0.02166 -0.17584,-0.06012 -0.1986,-0.13517c-0.1187,-0.26658 -0.27884,-0.48275 -0.21385,-0.76723z"></path><path fill="#c8e0e1" d="M232.49137,71.23759c0.10787,0.31399 0.22955,0.61118 0.33741,0.92517c-0.16092,0.09294 -0.2953,-0.01757 -0.43755,-0.05007c-0.14224,-0.03249 -0.28746,-0.0956 -0.4465,-0.14191c-0.13251,-0.24978 -0.12875,-0.52828 -0.18622,-0.80083c0.26956,-0.08809 0.4928,-0.01713 0.73285,0.06764z"></path><path fill="#c6ddde" d="M239.66199,76.31791c-0.13848,-0.311 -0.27398,-0.5914 -0.42926,-0.91622c0.27254,-0.05747 0.5264,0.01051 0.78513,-0.03016c0.17993,0.2606 0.19297,0.55293 0.28403,0.8531c-0.23895,0.0851 -0.43346,0.15042 -0.63991,0.09328z"></path><path fill="#b9cfd0" d="M238.38738,72.59448c0.42374,0.06687 0.81199,0.24536 1.24357,0.2342c0.16014,0.21618 0.3173,0.40174 0.40539,0.6713c-0.28337,0.10488 -0.53127,0.09814 -0.75563,-0.14269c-0.26094,-0.29907 -0.59095,-0.51415 -0.89333,-0.76282z"></path><path fill="#c0d8d8" d="M230.17625,79.66849c-0.13329,0.05935 -0.17584,-0.06012 -0.25684,-0.09859c-0.17882,-0.09074 -0.34382,-0.19828 -0.52751,-0.18037c-0.29531,-0.01757 -0.46629,-0.18633 -0.64024,-0.38571c-0.07018,-0.08588 -0.12655,-0.18855 -0.21651,-0.31886c0.36439,-0.06642 0.67052,-0.09626 0.93444,0.23343c0.17694,0.23 0.42595,0.4066 0.63052,0.603c0.05039,0.04145 0.10079,0.0829 0.07614,0.14711z"></path><path fill="#c1d9d9" d="M233.95127,81.61842c-0.22026,-0.04034 -0.38229,-0.11727 -0.51668,-0.22778c-0.0672,-0.05526 -0.1512,-0.12434 -0.17396,-0.19938c-0.09405,-0.33078 -0.24635,-0.62499 -0.39864,-0.9192c0.0967,-0.11759 0.15009,-0.04553 0.20049,-0.00409c0.16799,0.13815 0.35278,0.29012 0.5484,0.39467c0.24601,0.146 0.35576,0.32073 0.3352,0.58543c-0.01868,0.12544 -0.00973,0.21729 0.00519,0.37035z"></path><path fill="#c3dbdc" d="M238.24986,78.00079c0.1019,0.25276 0.12576,0.49767 0.18323,0.77022c-0.25276,0.1019 -0.47899,0.00032 -0.71308,-0.02322c-0.12168,-0.29719 -0.1209,-0.60632 -0.16754,-0.92627c0.2647,0.02056 0.47413,0.10832 0.69738,0.17927z"></path><path fill="#c3dadb" d="M231.84979,73.21623c-0.31808,-0.09262 -0.60554,-0.18822 -0.90681,-0.26703c-0.09593,-0.19153 -0.17506,-0.36925 -0.15152,-0.60333c0.25873,-0.04067 0.49579,0.01349 0.74667,0.05085c0.16312,0.24679 0.26503,0.49956 0.31166,0.81951z"></path><path fill="#c4dbdc" d="M237.79307,80.13139c-0.01304,-0.29233 -0.0231,-0.55404 -0.03315,-0.81575c0.25574,-0.07129 0.49281,-0.01713 0.72987,0.03702c0.05448,0.24193 0.06155,0.47303 0.0242,0.72391c-0.07504,0.02277 -0.1807,0.04851 -0.24193,0.05448c-0.16987,0.0011 -0.29531,-0.01758 -0.47899,0.00033z"></path><path fill="#c2d9da" d="M232.07829,80.95108c0.31918,0.26248 0.57116,0.46972 0.83995,0.69076c0.04852,0.1807 0.04962,0.35057 -0.02432,0.54321c-0.16688,0.03172 -0.25684,-0.09859 -0.38527,-0.14788c-0.12842,-0.0493 -0.24303,-0.11539 -0.32703,-0.18446c-0.02984,-0.30614 -0.05371,-0.55106 -0.10333,-0.90163z"></path><path fill="#c5ddde" d="M228.64569,74.27024c-0.07913,-0.17772 -0.11085,-0.34461 -0.09516,-0.50066c0.09372,-0.1482 0.24978,-0.13251 0.36925,-0.17506c0.11947,-0.04255 0.21916,-0.12953 0.3782,-0.08322c0.14036,0.17175 0.19484,0.41368 0.28293,0.68324c-0.15307,0.01492 -0.30614,0.02983 -0.44241,0.05857c-0.16987,0.0011 -0.33974,0.00221 -0.49281,0.01713z"></path><path fill="#c3dbdc" d="M239.59312,78.14801c0.09891,0.22214 0.03879,0.39799 0.05669,0.58167c-0.23596,0.11571 -0.48386,0.10897 -0.76236,0.10521c-0.03769,-0.22812 -0.07538,-0.45623 -0.12688,-0.66755c0.28337,-0.10488 0.55404,-0.02309 0.83255,-0.01933z"></path><path fill="#c7dfe0" d="M229.42385,77.02219c-0.10566,0.02575 -0.16688,0.03172 -0.22812,0.03769c-0.13925,-0.00188 -0.29531,-0.01757 -0.46518,-0.01647c-0.13848,-0.311 -0.3184,-0.57161 -0.35122,-0.90837c0.13031,-0.08996 0.25574,-0.07129 0.42859,-0.04178c0.19673,0.27442 0.41323,0.59327 0.61593,0.92892z"></path><path fill="#c7dee0" d="M236.26049,80.41984c-0.00376,0.27851 0.08133,0.51745 0.01336,0.77132c-0.22513,0.0683 -0.42374,-0.06687 -0.62124,-0.03217c-0.09405,-0.33079 -0.09028,-0.6093 -0.12012,-0.91544c0.28934,-0.04366 0.47413,0.10831 0.728,0.17628z"></path><path fill="#61acb1" d="M239.11631,82.76841c-0.04929,0.12843 -0.19639,0.20457 -0.20911,0.39124c0.24601,0.146 0.52265,0.28902 0.72722,0.48541c-0.07206,0.05338 -0.15793,0.12356 -0.24679,0.16312c-0.13329,0.05935 -0.27254,0.05747 -0.39014,-0.03924c-0.2154,-0.14898 -0.41401,-0.28415 -0.62941,-0.43313c0.1796,-0.21838 0.27929,-0.30537 0.74823,-0.56741z"></path><path fill="#c2dada" d="M233.57414,70.29762c0.07128,0.25575 0.12278,0.46706 0.18025,0.7396c-0.30127,-0.07881 -0.58576,-0.14379 -0.87322,-0.23939c-0.06531,-0.19451 -0.11383,-0.37521 -0.11793,-0.5757c0.28934,-0.04366 0.52641,0.0105 0.81089,0.07549z"></path><path fill="#c1d9d9" d="M234.38992,81.83835c-0.07128,-0.25575 -0.06155,-0.47303 -0.07161,-0.73474c0.29044,0.12622 0.54729,0.2248 0.80414,0.32339c0.09593,0.19153 0.04962,0.35058 0.02309,0.55404c-0.24193,0.05448 -0.46816,-0.04709 -0.75562,-0.14269z"></path><path fill="#c6dedf" d="M231.43999,71.86545c-0.29233,0.01304 -0.50961,0.00332 -0.7407,0.01039c-0.12655,-0.18855 -0.13362,-0.41965 -0.14069,-0.65075c0.20833,-0.08212 0.41965,-0.13362 0.67052,-0.09626c0.16014,0.21618 0.10599,0.45324 0.21087,0.73662z"></path><path fill="#c0d7d7" d="M240.39705,76.72529c0.05448,0.24193 0.07836,0.48684 0.11604,0.71496c-0.14114,0.13737 -0.29122,0.18291 -0.4917,0.187c-0.16312,-0.24679 -0.12875,-0.52829 -0.21684,-0.79785c0.19153,-0.09593 0.3782,-0.08322 0.59249,-0.10411z"></path><path fill="#c3dadb" d="M228.48597,77.54627c0.12953,0.21916 0.3173,0.40175 0.36096,0.69108c-0.20049,0.00409 -0.38416,0.02199 -0.56785,0.0399c-0.20159,-0.16578 -0.3005,-0.38792 -0.32437,-0.63284c0.16092,-0.09295 0.31399,-0.10787 0.53127,-0.09814z"></path><path fill="#5aa0a4" d="M237.6454,82.26277c-0.05526,0.06719 -0.09373,0.14821 -0.14898,0.21541c0.09891,0.22214 0.33896,0.30692 0.50993,0.47568c-0.0799,0.13141 -0.23596,0.11571 -0.34947,0.21949c-0.27364,-0.1124 -0.43379,-0.32858 -0.74888,-0.39059c0.12135,-0.1818 0.25463,-0.24116 0.40174,-0.3173c0.10267,-0.05636 0.16579,-0.20159 0.33566,-0.20269z"></path><path fill="#bdd3d4" d="M240.57104,72.64434c0.12953,0.21916 0.3173,0.40174 0.35797,0.66047c-0.13031,0.08996 -0.25276,0.1019 -0.43645,0.1198c-0.15716,-0.18556 -0.28668,-0.40473 -0.35498,-0.62986c0.13031,-0.08996 0.23596,-0.11571 0.43346,-0.15041z"></path><path fill="#bdd4d5" d="M238.97807,79.92318c-0.00409,-0.20049 -0.02199,-0.38417 -0.0399,-0.56786c0.20833,-0.08212 0.40881,-0.0862 0.62609,-0.07648c0.09294,0.16092 0.02984,0.30614 -0.06687,0.42374c-0.12433,0.15119 -0.24867,0.30238 -0.51933,0.2206z"></path><path fill="#bbd2d3" d="M235.57975,69.94762c0.13251,0.24977 0.24823,0.48574 0.38074,0.73551c-0.49093,-0.12213 -0.87919,-0.30062 -0.88846,-0.87145c0.16688,-0.03172 0.31509,0.062 0.50772,0.13594z"></path><path fill="#c3dadb" d="M237.30688,81.16774c-0.17771,0.07913 -0.33377,0.06343 -0.48982,0.04774c-0.11759,-0.09671 -0.08211,-0.20833 -0.09405,-0.33079c-0.00895,-0.09184 -0.0347,-0.1975 0.03139,-0.31211c0.17771,-0.07913 0.34571,0.05902 0.54023,-0.0063c0.0683,0.22513 0.05558,0.4118 0.01226,0.60145z"></path><path fill="#b1c6c7" d="M233.93319,75.40829c-0.27475,-0.28227 -0.54951,-0.56454 -0.769,-0.91401c0.09969,-0.08698 0.1975,-0.0347 0.2815,0.03438c0.2322,0.1628 0.45058,0.34239 0.65217,0.50817c0.15119,0.12434 0.1019,0.25276 -0.16467,0.37145z"></path><path fill="#bbd2d3" d="M241.21811,75.79538c-0.10676,-0.14412 -0.07426,-0.28636 -0.103,-0.42263c-0.07128,-0.25575 0.03625,-0.42075 0.28603,-0.55326c0.15229,0.29421 0.1377,0.62013 0.13394,0.89864c-0.1135,0.10378 -0.18855,0.12654 -0.31698,0.07725z"></path><path fill="#bad1d2" d="M235.61642,73.01908c-0.37444,-0.19529 -0.56332,-0.54774 -0.78281,-0.89721c0.31808,0.09262 0.57006,0.29984 0.81907,0.47646c0.16501,0.10753 0.15715,0.18557 -0.03625,0.42075z"></path><path fill="#b5cbcc" d="M239.37157,71.91136c0.23109,-0.00707 0.4286,-0.04178 0.65969,-0.04885c0.07018,0.08588 0.14633,0.23297 0.23629,0.36328c-0.33267,0.23331 -0.34947,0.21949 -0.55403,0.02309c-0.11759,-0.09671 -0.22138,-0.21021 -0.34195,-0.33753z"></path><path fill="#c0d7d8" d="M229.52479,71.55764c0.18855,-0.12654 0.35543,-0.15826 0.52232,-0.18998c0.10974,0.17473 0.06642,0.36438 0.07051,0.56486c-0.1807,0.04851 -0.34759,0.08024 -0.52829,0.12875c-0.13738,-0.14113 -0.04663,-0.31996 -0.06454,-0.50364z"></path><path fill="#bdd4d4" d="M239.85596,74.0275c0.11649,-0.07317 0.25575,-0.07129 0.4118,-0.05559c0.17694,0.23 0.26502,0.49956 0.29188,0.77508c-0.0799,0.13141 -0.15794,0.12356 -0.26956,0.08808c-0.14931,-0.26359 -0.29863,-0.52718 -0.43412,-0.80757z"></path><path fill="#b6cccc" d="M233.45434,69.86118c-0.23408,-0.02354 -0.47115,-0.0777 -0.70523,-0.10124c-0.02873,-0.13627 0.00674,-0.24789 0.08963,-0.34869c0.11649,-0.07317 0.22812,-0.03769 0.35356,-0.019c0.09483,0.02166 0.18965,0.04332 0.28448,0.06498c0.05935,0.13329 0.07128,0.25574 -0.02244,0.40395z"></path><path fill="#c1d9d9" d="M230.39678,72.89427c-0.23109,0.00707 -0.43158,0.01116 -0.67649,0.03503c-0.08698,-0.09969 -0.14633,-0.23298 -0.07239,-0.42562c0.1807,-0.04851 0.3782,-0.08322 0.58952,-0.13472c0.07913,0.17772 0.15528,0.32482 0.15937,0.52531z"></path><path fill="#b7cdce" d="M234.52771,69.61749c0.07913,0.17772 0.12466,0.3278 0.11195,0.51447c-0.23109,0.00707 -0.42672,-0.09748 -0.60255,-0.15761c-0.10676,-0.14412 -0.05747,-0.27254 -0.03879,-0.39798c0.05824,-0.03658 0.08587,-0.07018 0.10267,-0.05636c0.14224,0.03249 0.28448,0.06499 0.42672,0.09748z"></path><path fill="#b6cccc" d="M236.70462,69.91524c-0.29531,-0.01757 -0.4465,-0.14191 -0.62532,-0.23264c-0.20943,-0.08776 -0.19374,-0.24381 -0.18103,-0.43048c0.23109,-0.00707 0.40992,0.08367 0.59957,0.127c0.14036,0.17175 0.0526,0.38118 0.20678,0.53613z"></path><path fill="#c2dada" d="M241.31383,74.24081c-0.10753,0.165 -0.19043,0.2658 -0.37113,0.31432c-0.0683,-0.22513 -0.15042,-0.43346 -0.21573,-0.62798c0.07394,-0.19263 0.22999,-0.17694 0.32968,-0.26392c0.0336,0.02763 0.08101,0.03846 0.084,0.06907c0.06531,0.19451 0.11085,0.34461 0.17318,0.5085z"></path><path fill="#bbd2d3" d="M229.10878,72.67985c0.07614,0.1471 0.0851,0.23894 0.04962,0.35057c-0.06609,0.11461 -0.18855,0.12654 -0.30802,0.16909c-0.10566,0.02575 -0.21916,0.12953 -0.35057,0.04962c-0.03172,-0.16688 -0.03282,-0.33675 0.05792,-0.51557c0.1975,-0.0347 0.36737,-0.03581 0.55105,-0.05371z"></path><path fill="#bbd2d3" d="M235.60586,82.10615c0.01271,-0.18667 0.01459,-0.32593 0.03028,-0.48198c0.2143,-0.02089 0.40395,0.02244 0.60742,0.04897c0.04553,0.15009 0.04366,0.28934 -0.05305,0.40693c-0.04443,0.01978 -0.08886,0.03956 -0.13628,0.02873c-0.12246,0.01193 -0.26171,0.01006 -0.44838,-0.00265z"></path><path fill="#adc2c3" d="M239.72778,71.44398c-0.35057,0.04962 -0.35057,0.04962 -0.70523,-0.10124c-0.06531,-0.19451 0.02841,-0.34273 0.10235,-0.53536c0.27663,0.14302 0.42594,0.40661 0.60288,0.6366z"></path><path fill="#b5cbcc" d="M237.77693,81.07557c-0.04553,-0.15009 -0.02984,-0.30614 0.05006,-0.43755c0.2143,-0.02089 0.39799,-0.03878 0.59847,-0.04287c-0.06687,0.42373 -0.08068,0.44053 -0.64853,0.48042z"></path><path fill="#bbd1d2" d="M232.26448,70.17803c0.04852,0.1807 0.07725,0.31697 0.06454,0.50364c-0.19452,0.06531 -0.38715,-0.00862 -0.60443,-0.01835c-0.02276,-0.07505 -0.02873,-0.13627 -0.0347,-0.1975c-0.00597,-0.06123 0.01868,-0.12544 0.02652,-0.20346c0.17473,-0.10975 0.34461,-0.11085 0.54807,-0.08433z"></path><path fill="#b6cccd" d="M233.98741,82.46478c-0.25574,0.07129 -0.47115,-0.07769 -0.67461,-0.10422c-0.06233,-0.1639 0.01757,-0.29531 0.03327,-0.45136c0.2815,0.03437 0.47711,0.13893 0.62046,0.34129c0.05039,0.04144 0.02873,0.13627 0.02089,0.21429z"></path><path fill="#acc1c2" d="M227.9063,76.1966c0.12168,0.29719 0.21275,0.59736 0.31763,0.88073c-0.1135,0.10378 -0.21916,0.12953 -0.39202,0.10001c-0.04663,-0.31995 -0.09328,-0.63991 -0.04807,-0.96881c0.06123,-0.00597 0.09184,-0.00895 0.12246,-0.01193z"></path><path fill="#a7bbbb" d="M234.157,73.42402c0.25983,0.1292 0.50585,0.2752 0.69661,0.48839c0.07018,0.08587 0.09593,0.19153 0.02685,0.27552c-0.02763,0.0336 -0.11649,0.07316 -0.13329,0.05935c-0.2658,-0.19043 -0.42107,-0.51525 -0.59017,-0.82327z"></path><path fill="#b7cdcd" d="M231.22061,70.24887c0.07317,0.11649 0.05449,0.24193 0.022,0.38417c-0.1975,0.0347 -0.395,0.06941 -0.5925,0.10411c-0.07913,-0.17772 -0.01304,-0.29233 0.08366,-0.40992c0.13329,-0.05935 0.31697,-0.07725 0.48684,-0.07835z"></path><path fill="#b7cece" d="M240.14561,78.74317c-0.09891,-0.22215 -0.0862,-0.40882 -0.05968,-0.61228c0.16092,-0.09295 0.31101,-0.13848 0.51746,-0.08134c-0.06499,0.28448 -0.24757,0.47225 -0.45778,0.69362z"></path><path fill="#b4cacb" d="M231.70185,82.16216c-0.29829,-0.04819 -0.46142,-0.29499 -0.69849,-0.34914c-0.04553,-0.15009 0.02653,-0.20347 0.10456,-0.19562c0.20346,0.02653 0.40992,0.08367 0.5779,0.22182c0.03658,0.05824 0.05338,0.07206 0.01603,0.32294z"></path><path fill="#b2c8c9" d="M228.5765,75.62134c-0.13329,0.05935 -0.22513,0.0683 -0.33675,0.03282c-0.07128,-0.25575 -0.15936,-0.5253 -0.10035,-0.871c0.2994,0.21806 0.34305,0.5074 0.4371,0.83818z"></path><path fill="#b5cbcb" d="M236.71173,81.72022c0.1807,-0.04851 0.31697,-0.07725 0.4454,-0.02796c0.05338,0.07206 0.02873,0.13627 0.00408,0.20048c-0.09859,0.25685 -0.28526,0.24414 -0.52232,0.18998c0.03548,-0.11163 0.05416,-0.23707 0.07284,-0.36251z"></path><path fill="#91a3a3" d="M236.37405,71.7554c-0.2322,-0.1628 -0.41699,-0.31477 -0.57713,-0.53095c0.05228,-0.09781 0.13031,-0.08996 0.1807,-0.04851c0.13141,0.0799 0.27663,0.14301 0.40804,0.22292c0.13439,0.11052 0.11273,0.20535 -0.01161,0.35654z"></path><path fill="#99abac" d="M230.78832,77.8627c0.29829,0.04819 0.50286,0.24459 0.70445,0.41036c0.0336,0.02763 0.03956,0.08886 0.02873,0.13628c-0.02763,0.0336 -0.10267,0.05636 -0.11947,0.04255c-0.27663,-0.14302 -0.46739,-0.35622 -0.61372,-0.58919z"></path><path fill="#93a5a6" d="M230.69636,79.13877c-0.02951,0.17285 -0.09858,0.25685 -0.21021,0.22137c-0.14522,-0.06311 -0.28559,-0.23486 -0.44871,-0.48165c0.2647,0.02056 0.44948,0.17253 0.65892,0.26028z"></path><path fill="#9aadad" d="M241.28409,76.94789c-0.07427,-0.28636 -0.17915,-0.56973 0.20391,-0.76159c0.09107,0.30017 -0.08853,0.51856 -0.20391,0.76159z"></path><path fill="#c5dddd" d="M238.03326,74.66872c-0.17584,-0.06012 -0.36847,-0.13406 -0.52751,-0.18037c-0.04255,-0.11947 -0.0179,-0.18368 0.08179,-0.27066c0.22026,0.04034 0.333,0.24569 0.498,0.35323c-0.02763,0.0336 -0.04145,0.05039 -0.05228,0.09781z"></path><path fill="#aec2c3" d="M232.61004,75.7845c0.34272,0.02841 0.56111,0.20801 0.72424,0.4548c0.0168,0.01381 0.00596,0.06122 -0.02167,0.09483c-0.02465,0.06421 -0.10267,0.05636 -0.13627,0.02873c-0.1986,-0.13517 -0.35874,-0.35134 -0.5663,-0.57836z"></path><path fill="#9caeaf" d="M234.42385,82.34498c0.23109,-0.00707 0.44053,0.08069 0.63316,0.15463c0.04255,0.11947 -0.02951,0.17285 -0.12433,0.15119c-0.17286,-0.02951 -0.32891,-0.04521 -0.50475,-0.10533c-0.06123,0.00597 -0.07017,-0.08588 -0.00408,-0.20049z"></path><path fill="#a9bebf" d="M230.13564,70.8491c-0.17473,0.10975 -0.32482,0.15528 -0.52232,0.18998c0.1124,-0.27365 0.31477,-0.41699 0.48055,-0.61858c0.03658,0.05824 0.07018,0.08588 0.07316,0.11649c-0.00486,0.10864 -0.02652,0.20347 -0.03139,0.31211z"></path><path fill="#b9cfd0" d="M234.23676,78.84005c0.06311,-0.14522 0.13517,-0.1986 0.24082,-0.22435c0.1818,0.12135 0.29155,0.29609 0.32139,0.60223c-0.22922,-0.13219 -0.38041,-0.25652 -0.56221,-0.37788z"></path><path fill="#869797" d="M238.15473,73.2198c-0.04255,-0.11947 -0.00408,-0.20048 0.03438,-0.2815c0.10267,-0.05636 0.18667,0.01271 0.5484,0.39467c-0.26657,0.1187 -0.40992,-0.08367 -0.58278,-0.11317z"></path><path fill="#93a4a5" d="M231.81473,76.82006c0.22734,0.27144 0.58686,0.31367 0.59503,0.71463c-0.30725,-0.14003 -0.49502,-0.32261 -0.59503,-0.71463z"></path><path fill="#94a5a6" d="M236.26928,70.20491c0.25198,0.20722 0.41998,0.34538 0.58796,0.48353c0.0336,0.02763 0.03957,0.08886 -0.00188,0.13925c-0.01382,0.0168 -0.05824,0.03658 -0.08886,0.03957c-0.22922,-0.13219 -0.41401,-0.28415 -0.49723,-0.66235z"></path><path fill="#abbfc0" d="M238.56588,72.20623c0.01569,-0.15605 0.04034,-0.22026 0.17661,-0.249c0.14821,0.09372 0.31321,0.20126 0.43976,0.3898c-0.25574,0.07129 -0.42373,-0.06687 -0.61637,-0.14081z"></path><path fill="#acc0c1" d="M235.50515,69.18227c-0.03548,0.11163 -0.04631,0.15903 -0.07394,0.19263c-0.38715,-0.00862 -0.38715,-0.00862 -0.58089,-0.25243c0.23895,-0.0851 0.40693,0.05305 0.65483,0.0598z"></path><path fill="#9fb2b2" d="M240.65733,76.06637c-0.0515,-0.21131 -0.13362,-0.41964 -0.1713,-0.64776c-0.00895,-0.09184 0.04631,-0.15904 0.18855,-0.12654c0.07128,0.25575 0.12577,0.49767 -0.01725,0.7743z"></path><path fill="#aec2c3" d="M232.25332,69.74645c-0.13627,0.02873 -0.22812,0.03769 -0.33974,0.00221c-0.03956,-0.08886 -0.03172,-0.16689 0.02056,-0.2647c0.09969,-0.08698 0.23895,-0.08509 0.3782,-0.08321c0.07317,0.11649 0.00707,0.23109 -0.05902,0.3457z"></path><path fill="#91a2a3" d="M236.49603,76.81192c-0.19452,0.06531 -0.3121,-0.0314 -0.44351,-0.1113c-0.05039,-0.04144 -0.04255,-0.11948 -0.0011,-0.16987c0.02763,-0.0336 0.10267,-0.05636 0.13627,-0.02873c0.14224,0.03249 0.2154,0.14898 0.30835,0.3099z"></path><path fill="#869696" d="M228.99462,71.82564c0.13362,0.41965 0.13659,0.45026 -0.27819,0.47523c0.07693,-0.16202 0.08963,-0.34869 0.27819,-0.47523z"></path><path fill="#555f5f" d="M229.90592,80.06569c-0.25873,0.04067 -0.31808,-0.09261 -0.42185,-0.20612c0.20833,-0.08212 0.20833,-0.08212 0.42185,0.20612z"></path><path fill="#93a5a6" d="M236.88518,75.41417c0.084,0.06907 0.20159,0.16578 0.27774,0.31288c-0.27553,0.02685 -0.34273,-0.02841 -0.40506,-0.19231c-0.01979,-0.04443 0.02166,-0.09483 0.12732,-0.12058z"></path><path fill="#8b9b9c" d="M236.98391,69.60988c0.33974,-0.00221 0.35952,0.04222 0.18888,0.35245c-0.14522,-0.06311 -0.17396,-0.19938 -0.18888,-0.35245z"></path><path fill="#9aacad" d="M229.02783,79.93494c0.20943,0.08776 0.33002,0.21507 0.45059,0.34239c-0.03249,0.14224 -0.10754,0.16501 -0.17473,0.10975c-0.13439,-0.11052 -0.25497,-0.23784 -0.27585,-0.45214z"></path><path fill="#5f6a6b" d="M234.08387,69.0272c0.16688,-0.03172 0.30018,-0.09107 0.42075,0.03625c0.0168,0.01381 0.01978,0.04443 0.00597,0.06123c-0.15794,0.12356 -0.28636,0.07426 -0.42672,-0.09749z"></path><path fill="#636e6f" d="M235.43602,77.82693c-0.10864,-0.00486 -0.17584,-0.06012 -0.22922,-0.13218c-0.01979,-0.04443 -0.02575,-0.10566 0.01868,-0.12544c0.04443,-0.01979 0.10566,-0.02575 0.13925,0.00188c0.0672,0.05526 0.12058,0.12732 0.07128,0.25574z"></path><path fill="#4a5354" d="M231.15121,69.85387c0.04631,-0.15904 0.13219,-0.22921 0.32184,-0.18589c-0.04332,0.18965 -0.14898,0.2154 -0.32184,0.18589z"></path></g></g></svg>